<?xml version="1.0" encoding="utf-8"?>
<!-- Generator: Adobe Illustrator 15.0.0, SVG Export Plug-In . SVG Version: 6.00 Build 0)  -->
<!DOCTYPE svg PUBLIC "-//W3C//DTD SVG 1.1//EN" "http://www.w3.org/Graphics/SVG/1.1/DTD/svg11.dtd">
<svg version="1.1" id="Layer_1" xmlns="http://www.w3.org/2000/svg" xmlns:xlink="http://www.w3.org/1999/xlink" x="0px" y="0px"
	 width="1092px" height="841.89px" viewBox="0 0 1092 841.89" enable-background="new 0 0 1092 841.89" xml:space="preserve">
<g>
	<path fill="#EFF8F8" d="M37.813,124.638c1.954-5.042,8.182-4.705,12.8-5.709c-5.191-10.776,11.771-18.592,20.233-12.374
		c-0.57-7.976,22.754-18.525,32.398,5.977c13.626-2.646,15.654,8.8,14.042,12c2.425,0.233,14.55,7.006,6.652,16.864
		c-3.558,2.963-11.346,3.495-17.966,3.526c-25.702,0.174-45.36-0.471-51.839-1.283C54.8,143.674,34.027,141.35,37.813,124.638"/>
</g>
<g>
	<g>
		
			<rect x="517.092" y="291.499" transform="matrix(0.9976 0.0698 -0.0698 0.9976 23.8344 -35.3343)" fill="#B5956B" width="1" height="63.864"/>
	</g>
	<path fill="#B5956B" d="M517.498,370.894c0.029,6.13,3.029,16.629-6.369,15.262c-9.395-1.526-3.558-11.626-1.822-16.513
		c4.627-13.034,5.033-15.742,6.254-15.799C516.904,353.782,516.598,362.176,517.498,370.894z"/>
</g>
<g>
	<g>
		<rect x="529.776" y="291.447" fill="#A09A8E" width="1.001" height="99.205"/>
	</g>
	<circle fill="#A09A8E" cx="530.276" cy="404.924" r="14.271"/>
</g>
<g>
	<g>
		<polygon fill="#CFAC76" points="545.472,342.626 546.47,342.586 544.474,291.87 543.474,291.87 		"/>
	</g>
	<path fill="#CFAC76" d="M543.356,358.143c-0.217,6.126-3.537,16.528,5.898,15.449c9.438-1.238,3.912-11.511,2.328-16.449
		c-4.227-13.169-4.551-15.889-5.77-15.983C544.474,341.057,544.522,349.457,543.356,358.143z"/>
</g>
<g>
	<path fill="#E5E5D6" d="M633.501,158.057c8.479-20.908,35.519-19.517,55.574-23.688c-22.529-44.675,51.13-77.104,87.862-51.329
		c-2.471-33.07,98.812-76.832,140.663,24.75c59.172-10.981,67.958,36.477,60.957,49.743c10.525,0.966,63.164,29.037,28.866,69.922
		c-15.447,12.292-49.266,14.499-78.006,14.637c-111.598,0.748-196.951-1.908-225.083-5.267
		C707.231,236.974,617.036,227.354,633.501,158.057"/>
</g>
<g>
	<path fill="#EE2A7B" d="M152.68,398.877c-3.396-30.587-24.238,1.279-10.787,5.247C148.002,403.071,148.002,403.071,152.68,398.877z
		"/>
	<path fill="#A09A8E" d="M125.019,416.294c19.69-19.769,70.979-71.45,109.85-5.832C218.089,416.294,152.68,421.548,125.019,416.294z
		"/>
	<path fill="#EE2A7B" d="M155.97,400.952c2.725-30.656,23.973,1.084,10.899,5.009C163.588,405.433,160.038,404.935,155.97,400.952z"
		/>
	<path fill="#231F17" d="M145.713,406.552c0,0.604-0.707,1.75-1.579,1.75c-0.871,0-1.578-1.146-1.578-1.75
		c0-0.605,0.707-1.617,1.578-1.617C145.006,404.935,145.713,405.947,145.713,406.552z"/>
	<path fill="#231F17" d="M139.869,405.13c0,0.514-0.548,1.488-1.226,1.488c-0.676,0-1.225-0.975-1.225-1.488
		c0-0.518,0.548-1.377,1.225-1.377C139.321,403.753,139.869,404.613,139.869,405.13z"/>
	<path fill="#1B1A1B" d="M132.851,417.412c-0.965-0.131-8.04-0.826-7.833-1.117c0.336-0.475,3.744-4.318,4.339-4.328
		C130.865,411.941,133.95,416.046,132.851,417.412z"/>
	<g>
		<path fill="#332931" d="M234.459,410.646l-0.146-0.928c1.841-0.289,3.974-0.393,6.037-0.492c3.287-0.16,7.011-0.34,7.5-1.389
			c0.17-0.363-0.142-0.904-0.44-1.301c-2.622-2.762-3.552-4.438-3.015-5.431c0.368-0.682,1.306-0.877,2.868-0.59l0.052,0.012
			c10.445,3.188,15.054,2.131,15.649,1.123c0.044-0.072,0.171-0.293-0.208-0.66c-2.594-2.512-3.158-3.451-2.875-4.785
			c0.574-2.704,5.991-2.051,8.293-1.645c0,0,0.074,0.07-0.336,0.209c-4.778-0.412-6.768,0.371-7.037,1.631
			c-0.17,0.799,0.026,1.414,2.608,3.914c0.573,0.555,0.708,1.23,0.364,1.813c-1.094,1.856-6.684,2.362-16.705-0.691
			c-1.2-0.217-1.745-0.072-1.848,0.115c-0.076,0.141-0.292,1.012,2.887,4.356l0.035,0.039c0.667,0.879,0.858,1.652,0.561,2.289
			c-0.729,1.563-4.074,1.723-8.307,1.93C238.357,410.263,236.25,410.367,234.459,410.646z"/>
	</g>
</g>
<g>
	<text transform="matrix(1 0 0 1 588.998 161.437)" fill="#CFAC76" font-family="'Mistral'" font-size="26.98">3</text>
	<g>
		<polygon fill="#CFAC76" points="597.551,156.22 534.09,139.821 534.448,153.123 		"/>
		<polygon fill="#CFAC76" points="555.261,180.256 536.787,147.824 529.323,152.183 		"/>
		<text transform="matrix(1 0 0 1 519.5303 103.8223)" fill="#CFAC76" font-family="'Mistral'" font-size="26.98">12</text>
		<text transform="matrix(1 0 0 1 525.6328 221.1787)" fill="#CFAC76" font-family="'Mistral'" font-size="26.98">6</text>
		<text transform="matrix(1 0 0 1 464.5078 162.231)" fill="#CFAC76" font-family="'Mistral'" font-size="26.98">9</text>
		<g>
			
				<ellipse transform="matrix(0.8662 -0.4998 0.4998 0.8662 18.304 263.8123)" fill="#CFAC76" cx="501.687" cy="97.733" rx="0.787" ry="7.015"/>
			
				<ellipse transform="matrix(0.8662 -0.4998 0.4998 0.8662 -28.4702 310.5745)" fill="#CFAC76" cx="565.604" cy="208.441" rx="0.787" ry="7.015"/>
		</g>
		<g>
			
				<ellipse transform="matrix(0.5002 -0.8659 0.8659 0.5002 134.1728 474.705)" fill="#CFAC76" cx="478.291" cy="121.128" rx="0.786" ry="7.016"/>
			
				<ellipse transform="matrix(0.5004 -0.8658 0.8658 0.5004 134.048 602.396)" fill="#CFAC76" cx="589.001" cy="185.045" rx="0.786" ry="7.014"/>
		</g>
		<g>
			<path fill="#CFAC76" d="M477.898,184.362c3.358-1.937,6.25-3.203,6.47-2.825c0.219,0.376-2.325,2.251-5.684,4.187
				c-3.357,1.939-6.252,3.206-6.469,2.829C471.998,188.177,474.541,186.302,477.898,184.362z"/>
			<path fill="#CFAC76" d="M588.607,120.445c3.354-1.938,6.25-3.203,6.467-2.827c0.218,0.376-2.326,2.252-5.68,4.189
				c-3.357,1.938-6.255,3.203-6.471,2.826C582.705,124.258,585.251,122.383,588.607,120.445z"/>
		</g>
		<g>
			<path fill="#CFAC76" d="M501.005,208.045c1.938-3.354,3.811-5.898,4.189-5.681s-0.888,3.113-2.826,6.467
				c-1.939,3.358-3.813,5.902-4.19,5.685C497.802,214.299,499.066,211.403,501.005,208.045z"/>
			<path fill="#CFAC76" d="M564.925,97.337c1.935-3.355,3.81-5.899,4.186-5.682c0.376,0.218-0.888,3.113-2.823,6.469
				c-1.939,3.357-3.816,5.901-4.192,5.684S562.985,100.695,564.925,97.337z"/>
		</g>
	</g>
</g>
<g>
	<path fill="#EDF2F1" d="M552.797,207.109c5.777-16.653,25.311-15.939,39.713-19.523c-16.988-35.002,35.629-61.698,62.558-41.846
		c-2.325-26.111,70.042-62.165,101.906,17.555c42.517-9.53,49.637,27.869,44.804,38.459c7.61,0.612,46.054,22.052,21.977,54.873
		c-10.945,9.939-35.313,12.17-56.046,12.69c-80.516,2.189-142.15,1.313-162.503-0.94
		C607.298,268.453,542.056,262.139,552.797,207.109"/>
</g>
<g>
	<path fill="#DDF0ED" d="M211.614,181.902c7.696-20.5,31.931-19,49.931-23c-20-44,46.182-75.5,79-50c-2.068-32.5,88.932-75,126,25
		c53.099-10.5,60.765,36.167,54.431,49.167c9.432,1,56.5,28.833,25.568,68.833c-13.904,12.001-44.234,14.004-70,14
		c-100.057,0.192-176.568-2.833-201.772-6.271C277.368,259.791,196.546,249.902,211.614,181.902"/>
</g>
<g>
	<path fill="#C2D4CF" d="M388.684,246.152c5.454-13.445,22.841-12.551,35.738-15.232c-14.488-28.729,32.879-49.582,56.501-33.008
		c-1.589-21.266,63.542-49.407,90.454,15.916c38.051-7.062,43.701,23.457,39.199,31.988c6.77,0.622,40.619,18.672,18.563,44.964
		c-9.934,7.905-31.68,9.324-50.162,9.413c-71.763,0.481-126.651-1.227-144.741-3.387C436.097,296.9,378.097,290.714,388.684,246.152
		"/>
</g>
<g>
	<path fill="#A3B2AD" d="M372.742,165.581c-9.326,13.117-27.521,16.193-40.639,6.869c-13.119-9.326-16.194-27.52-6.869-40.639
		s27.52-16.193,40.637-6.869C378.99,134.269,382.066,152.462,372.742,165.581z M357.849,136.229
		c-6.885-4.893-16.435-3.279-21.328,3.605s-3.28,16.434,3.605,21.326c6.885,4.896,16.434,3.279,21.326-3.604
		C366.347,150.673,364.734,141.124,357.849,136.229z"/>
	<path fill="#A3B2AD" d="M370.558,127.628c0.551-0.775,1.365-1.922,1.365-1.922c0.623-0.877,0.418-2.092-0.459-2.715l-5.584-3.971
		c-0.877-0.623-2.096-0.418-2.717,0.459c0,0-0.814,1.145-1.363,1.918s-2.543,0.018-2.543,0.018l-2.193,3.088
		c-0.625,0.877-0.418,2.094,0.457,2.717l4.475,3.182l4.473,3.178c0.877,0.623,2.094,0.418,2.717-0.459l2.195-3.088
		C371.378,130.032,370.009,128.399,370.558,127.628z"/>
	<path fill="#A3B2AD" d="M349.341,118.546c-0.158-0.938-0.393-2.322-0.393-2.322c-0.18-1.061-1.185-1.775-2.247-1.596l-6.757,1.141
		c-1.06,0.182-1.773,1.186-1.596,2.246c0,0,0.235,1.387,0.393,2.322c0.159,0.936-1.783,1.809-1.783,1.809l0.631,3.736
		c0.18,1.059,1.185,1.773,2.245,1.596l5.41-0.916l5.411-0.914c1.063-0.18,1.775-1.186,1.598-2.246l-0.631-3.734
		C351.621,119.665,349.499,119.481,349.341,118.546z"/>
	<path fill="#A3B2AD" d="M327.917,127.128c-0.773-0.553-1.918-1.367-1.918-1.367c-0.878-0.621-2.095-0.416-2.718,0.459l-3.97,5.586
		c-0.623,0.877-0.417,2.094,0.458,2.717c0,0,1.147,0.814,1.919,1.365c0.774,0.551,0.017,2.541,0.017,2.541l3.088,2.193
		c0.877,0.623,2.094,0.42,2.717-0.459l3.18-4.473l3.18-4.475c0.624-0.875,0.418-2.094-0.459-2.715l-3.087-2.193
		C330.322,126.308,328.69,127.675,327.917,127.128z"/>
	<path fill="#A3B2AD" d="M318.835,148.345c-0.937,0.158-2.321,0.393-2.321,0.393c-1.062,0.178-1.775,1.186-1.597,2.246l1.142,6.756
		c0.18,1.061,1.186,1.775,2.246,1.596c0,0,1.387-0.234,2.322-0.395c0.936-0.156,1.809,1.787,1.809,1.787l3.736-0.633
		c1.061-0.18,1.774-1.184,1.596-2.244l-0.915-5.41l-0.917-5.414c-0.179-1.061-1.184-1.775-2.244-1.596l-3.736,0.633
		C319.958,146.063,319.771,148.185,318.835,148.345z"/>
	<path fill="#A3B2AD" d="M327.417,169.769c-0.55,0.773-1.364,1.918-1.364,1.918c-0.623,0.877-0.418,2.094,0.459,2.717l5.585,3.969
		c0.877,0.625,2.093,0.42,2.716-0.459c0,0,0.815-1.145,1.364-1.918c0.55-0.773,2.541-0.018,2.541-0.018l2.193-3.088
		c0.623-0.875,0.418-2.092-0.458-2.715l-4.473-3.18l-4.474-3.18c-0.876-0.625-2.094-0.418-2.717,0.457l-2.193,3.088
		C326.597,167.36,327.966,168.993,327.417,169.769z"/>
	<path fill="#A3B2AD" d="M348.633,178.849c0.158,0.938,0.393,2.322,0.393,2.322c0.178,1.061,1.186,1.773,2.245,1.596l6.756-1.143
		c1.063-0.18,1.775-1.186,1.598-2.246c0,0-0.234-1.385-0.393-2.32c-0.16-0.936,1.785-1.809,1.785-1.809l-0.631-3.736
		c-0.18-1.061-1.186-1.773-2.246-1.596l-5.412,0.914l-5.412,0.916c-1.061,0.18-1.774,1.186-1.596,2.246l0.631,3.734
		C346.353,177.728,348.475,177.913,348.633,178.849z"/>
	<path fill="#A3B2AD" d="M370.058,170.267c0.773,0.551,1.92,1.365,1.92,1.365c0.877,0.623,2.092,0.418,2.715-0.459l3.971-5.586
		c0.623-0.877,0.418-2.094-0.457-2.717c0,0-1.146-0.814-1.922-1.363c-0.771-0.551-0.016-2.539-0.016-2.539l-3.088-2.197
		c-0.877-0.623-2.092-0.416-2.717,0.459l-3.18,4.473l-3.18,4.477c-0.623,0.875-0.416,2.092,0.459,2.715l3.088,2.195
		C367.654,171.087,369.285,169.718,370.058,170.267z"/>
	<path fill="#A3B2AD" d="M379.14,149.052c0.936-0.16,2.322-0.395,2.322-0.395c1.059-0.18,1.773-1.186,1.596-2.244l-1.143-6.758
		c-0.182-1.061-1.186-1.773-2.246-1.596c0,0-1.387,0.234-2.322,0.393c-0.936,0.156-1.807-1.785-1.807-1.785l-3.738,0.633
		c-1.061,0.178-1.773,1.184-1.596,2.246l0.916,5.408l0.912,5.41c0.182,1.063,1.188,1.777,2.246,1.598l3.734-0.633
		C378.017,151.329,378.205,149.21,379.14,149.052z"/>
	<circle fill="#A3B2AD" cx="348.987" cy="148.696" r="4.859"/>
</g>
<g>
	<path fill="#B5956B" d="M808.981,263.005c0,14.58-11.819,26.4-26.399,26.4s-26.4-11.82-26.4-26.4c0-14.58,11.82-26.399,26.4-26.399
		S808.981,248.425,808.981,263.005z M782.582,249.15c-7.649,0-13.854,6.204-13.854,13.855c0,7.653,6.205,13.855,13.854,13.855
		c7.653,0,13.854-6.202,13.854-13.855C796.436,255.353,790.235,249.15,782.582,249.15z"/>
	<path fill="#B5956B" d="M795.735,263.005c0,7.264-5.891,13.154-13.153,13.154c-7.264,0-13.153-5.89-13.153-13.154
		c0-7.263,5.89-13.152,13.153-13.152C789.845,249.853,795.735,255.742,795.735,263.005z M782.582,259.043
		c-2.187,0-3.962,1.773-3.962,3.961s1.775,3.962,3.962,3.962c2.19,0,3.963-1.774,3.963-3.962
		C786.545,260.816,784.772,259.043,782.582,259.043z"/>
	<g>
		<path fill="#B5956B" d="M785.581,235.982c-0.238-1.312-0.474-2.624-0.708-3.935c-0.109-0.604-0.521-1.245-0.939-1.357
			c-1.061-0.288-1.643-0.288-2.704,0c-0.416,0.112-0.83,0.753-0.938,1.357c-0.234,1.313-0.468,2.624-0.704,3.935
			c-0.098,0.533-1.335,0.979-1.335,0.979c-0.218,0.813-0.325,1.221-0.542,2.036c-0.153,0.578,0.324,1.046,1.068,1.046
			c1.269,0,2.538,0,3.804,0c1.268,0,2.537,0,3.805,0c0.743,0,1.225-0.468,1.068-1.046c-0.217-0.815-0.325-1.222-0.542-2.036
			C786.913,236.962,785.674,236.516,785.581,235.982z"/>
	</g>
	<g>
		<path fill="#B5956B" d="M776.154,236.587c-0.669-1.152-1.337-2.304-2.009-3.456c-0.308-0.531-0.914-0.992-1.346-0.957
			c-1.097,0.093-1.64,0.292-2.541,0.926c-0.354,0.249-0.522,0.991-0.417,1.597c0.229,1.313,0.455,2.625,0.683,3.938
			c0.093,0.535-0.919,1.376-0.919,1.376c0.071,0.839,0.11,1.26,0.185,2.099c0.052,0.595,0.665,0.873,1.362,0.617
			c1.192-0.434,2.387-0.867,3.577-1.301c1.191-0.434,2.381-0.868,3.573-1.301c0.699-0.256,0.989-0.86,0.646-1.349
			c-0.483-0.692-0.724-1.037-1.204-1.727C777.745,237.051,776.427,237.056,776.154,236.587z"/>
	</g>
	<g>
		<path fill="#B5956B" d="M767.506,240.379c-1.022-0.854-2.046-1.708-3.068-2.561c-0.472-0.394-1.2-0.62-1.591-0.438
			c-1.002,0.461-1.445,0.836-2.074,1.739c-0.247,0.355-0.151,1.109,0.154,1.643c0.663,1.156,1.326,2.312,1.989,3.468
			c0.271,0.471-0.395,1.608-0.395,1.608c0.355,0.763,0.538,1.145,0.893,1.908c0.254,0.542,0.922,0.593,1.493,0.114
			c0.971-0.815,1.943-1.63,2.913-2.444c0.973-0.816,1.943-1.631,2.914-2.446c0.572-0.479,0.638-1.146,0.148-1.489
			c-0.689-0.484-1.035-0.726-1.723-1.21C769.16,240.271,767.925,240.726,767.506,240.379z"/>
	</g>
	<g>
		<path fill="#B5956B" d="M760.675,246.9c-1.252-0.453-2.505-0.906-3.759-1.356c-0.579-0.209-1.337-0.172-1.645,0.131
			c-0.78,0.777-1.071,1.279-1.353,2.343c-0.11,0.418,0.238,1.094,0.707,1.491c1.018,0.859,2.036,1.719,3.055,2.578
			c0.414,0.351,0.181,1.646,0.181,1.646c0.595,0.595,0.894,0.893,1.49,1.488c0.422,0.422,1.068,0.24,1.442-0.405
			c0.633-1.097,1.266-2.195,1.901-3.292c0.633-1.099,1.271-2.197,1.903-3.294c0.373-0.646,0.206-1.295-0.373-1.451
			c-0.813-0.219-1.218-0.328-2.033-0.547C762.192,246.233,761.188,247.084,760.675,246.9z"/>
	</g>
	<g>
		<path fill="#B5956B" d="M756.489,255.363c-1.331,0.004-2.666,0.007-3.997,0.012c-0.615,0.001-1.316,0.296-1.504,0.688
			c-0.466,0.996-0.567,1.567-0.467,2.664c0.039,0.43,0.598,0.947,1.174,1.16c1.251,0.459,2.504,0.918,3.753,1.378
			c0.51,0.187,0.733,1.485,0.733,1.485c0.765,0.355,1.146,0.533,1.908,0.888c0.542,0.252,1.089-0.139,1.218-0.873
			c0.221-1.248,0.44-2.497,0.659-3.745c0.221-1.25,0.439-2.498,0.66-3.747c0.131-0.734-0.248-1.288-0.845-1.237
			c-0.839,0.074-1.258,0.109-2.097,0.182C757.686,254.218,757.03,255.361,756.489,255.363z"/>
	</g>
	<g>
		<path fill="#B5956B" d="M755.448,264.748c-1.249,0.459-2.502,0.918-3.75,1.378c-0.579,0.212-1.138,0.729-1.177,1.159
			c-0.098,1.097,0.004,1.668,0.47,2.664c0.185,0.391,0.886,0.685,1.501,0.687c1.331,0.004,2.666,0.008,3.997,0.013
			c0.541,0.001,1.196,1.145,1.196,1.145c0.839,0.071,1.261,0.108,2.1,0.18c0.596,0.052,0.973-0.502,0.845-1.236
			c-0.221-1.248-0.442-2.497-0.66-3.746c-0.222-1.248-0.441-2.496-0.662-3.745c-0.127-0.735-0.673-1.125-1.218-0.873
			c-0.762,0.356-1.142,0.533-1.908,0.888C756.182,263.262,755.958,264.56,755.448,264.748z"/>
	</g>
	<g>
		<path fill="#B5956B" d="M757.681,273.922c-1.019,0.86-2.037,1.718-3.055,2.579c-0.469,0.396-0.817,1.072-0.707,1.49
			c0.281,1.064,0.572,1.568,1.353,2.344c0.308,0.304,1.065,0.34,1.645,0.131c1.254-0.451,2.51-0.904,3.759-1.355
			c0.513-0.184,1.518,0.667,1.518,0.667c0.815-0.219,1.222-0.329,2.033-0.548c0.579-0.154,0.746-0.805,0.373-1.45
			c-0.633-1.098-1.271-2.196-1.903-3.294c-0.636-1.097-1.269-2.196-1.901-3.294c-0.374-0.645-1.018-0.827-1.442-0.404
			c-0.597,0.597-0.896,0.894-1.49,1.488C757.861,272.278,758.095,273.573,757.681,273.922z"/>
	</g>
	<g>
		<path fill="#B5956B" d="M762.916,281.781c-0.663,1.156-1.326,2.312-1.987,3.468c-0.306,0.533-0.4,1.288-0.156,1.642
			c0.629,0.905,1.072,1.279,2.074,1.741c0.391,0.181,1.119-0.045,1.591-0.439c1.022-0.854,2.048-1.707,3.068-2.56
			c0.419-0.347,1.654,0.108,1.654,0.108c0.688-0.485,1.033-0.726,1.724-1.209c0.488-0.345,0.423-1.012-0.149-1.49
			c-0.971-0.816-1.941-1.629-2.912-2.445c-0.972-0.815-1.941-1.63-2.915-2.446c-0.571-0.479-1.239-0.428-1.493,0.113
			c-0.354,0.764-0.534,1.145-0.89,1.908C762.524,280.172,763.188,281.31,762.916,281.781z"/>
	</g>
	<g>
		<path fill="#B5956B" d="M770.524,287.375c-0.228,1.312-0.454,2.625-0.683,3.938c-0.104,0.605,0.065,1.349,0.417,1.597
			c0.901,0.635,1.444,0.833,2.543,0.926c0.431,0.038,1.036-0.425,1.344-0.956c0.672-1.151,1.34-2.304,2.012-3.457
			c0.272-0.468,1.588-0.463,1.588-0.463c0.483-0.691,0.725-1.036,1.207-1.727c0.343-0.489,0.051-1.094-0.648-1.35
			c-1.191-0.432-2.383-0.866-3.574-1.3c-1.19-0.434-2.382-0.867-3.574-1.301c-0.7-0.254-1.312,0.021-1.362,0.618
			c-0.074,0.84-0.113,1.258-0.188,2.098C769.605,285.997,770.617,286.84,770.524,287.375z"/>
	</g>
	<g>
		<path fill="#B5956B" d="M779.587,290.028c0.236,1.312,0.469,2.623,0.704,3.935c0.108,0.605,0.522,1.246,0.938,1.358
			c1.062,0.289,1.644,0.289,2.704,0c0.418-0.112,0.83-0.752,0.939-1.358c0.234-1.312,0.47-2.623,0.705-3.935
			c0.096-0.534,1.335-0.979,1.335-0.979c0.217-0.813,0.325-1.221,0.542-2.035c0.156-0.579-0.325-1.047-1.068-1.047
			c-1.271,0-2.54,0-3.805,0c-1.269,0-2.535,0-3.804,0c-0.744,0-1.224,0.468-1.069,1.047c0.218,0.814,0.325,1.221,0.543,2.035
			C778.252,289.049,779.489,289.494,779.587,290.028z"/>
	</g>
	<g>
		<path fill="#B5956B" d="M789.009,289.423c0.67,1.151,1.34,2.304,2.009,3.456c0.31,0.533,0.915,0.992,1.349,0.956
			c1.095-0.092,1.641-0.291,2.539-0.925c0.354-0.25,0.521-0.992,0.416-1.597c-0.228-1.313-0.453-2.625-0.682-3.938
			c-0.092-0.533,0.918-1.377,0.918-1.377c-0.074-0.838-0.11-1.259-0.184-2.098c-0.055-0.595-0.664-0.873-1.366-0.618
			c-1.188,0.435-2.38,0.868-3.57,1.301c-1.194,0.434-2.385,0.867-3.576,1.302c-0.7,0.254-0.99,0.858-0.647,1.349
			c0.483,0.691,0.725,1.036,1.205,1.727C787.419,288.961,788.737,288.955,789.009,289.423z"/>
	</g>
	<g>
		<path fill="#B5956B" d="M797.658,285.631c1.021,0.854,2.045,1.708,3.068,2.561c0.472,0.393,1.197,0.62,1.592,0.438
			c0.999-0.461,1.444-0.834,2.074-1.739c0.245-0.355,0.147-1.11-0.155-1.643c-0.663-1.156-1.326-2.312-1.99-3.468
			c-0.269-0.469,0.395-1.608,0.395-1.608c-0.358-0.764-0.538-1.145-0.895-1.908c-0.252-0.542-0.919-0.593-1.491-0.113
			c-0.971,0.815-1.941,1.629-2.913,2.445c-0.971,0.814-1.943,1.63-2.914,2.445c-0.572,0.479-0.637,1.146-0.148,1.489
			c0.689,0.485,1.037,0.726,1.727,1.21C796.004,285.74,797.241,285.284,797.658,285.631z"/>
	</g>
	<g>
		<path fill="#B5956B" d="M804.485,279.111c1.256,0.453,2.51,0.905,3.762,1.354c0.576,0.209,1.337,0.173,1.644-0.132
			c0.782-0.776,1.072-1.279,1.354-2.342c0.11-0.419-0.24-1.095-0.708-1.491c-1.016-0.861-2.035-1.719-3.054-2.579
			c-0.413-0.35-0.18-1.645-0.18-1.645c-0.596-0.596-0.895-0.893-1.491-1.49c-0.425-0.421-1.067-0.241-1.442,0.404
			c-0.633,1.098-1.266,2.197-1.901,3.294c-0.633,1.098-1.267,2.196-1.899,3.294c-0.375,0.646-0.209,1.295,0.368,1.45
			c0.814,0.219,1.223,0.329,2.035,0.547C802.972,279.778,803.976,278.927,804.485,279.111z"/>
	</g>
	<g>
		<path fill="#B5956B" d="M808.673,270.649c1.335-0.005,2.664-0.008,3.997-0.014c0.616,0,1.317-0.295,1.502-0.686
			c0.469-0.997,0.567-1.568,0.471-2.664c-0.04-0.431-0.599-0.948-1.175-1.159c-1.251-0.46-2.503-0.919-3.753-1.379
			c-0.507-0.186-0.733-1.485-0.733-1.485c-0.762-0.355-1.145-0.533-1.908-0.888c-0.541-0.251-1.089,0.139-1.217,0.873
			c-0.222,1.248-0.44,2.497-0.663,3.745c-0.218,1.249-0.439,2.497-0.657,3.746c-0.131,0.735,0.248,1.288,0.845,1.237
			c0.839-0.074,1.259-0.11,2.098-0.182C807.479,271.792,808.133,270.649,808.673,270.649z"/>
	</g>
	<g>
		<path fill="#B5956B" d="M809.715,261.263c1.25-0.46,2.501-0.917,3.75-1.378c0.579-0.213,1.138-0.729,1.176-1.159
			c0.099-1.097,0-1.668-0.469-2.665c-0.185-0.391-0.886-0.685-1.502-0.687c-1.333-0.004-2.665-0.008-3.997-0.013
			c-0.54-0.001-1.196-1.145-1.196-1.145c-0.839-0.072-1.26-0.109-2.099-0.181c-0.594-0.051-0.973,0.502-0.845,1.236
			c0.221,1.248,0.439,2.497,0.66,3.746c0.22,1.248,0.441,2.497,0.662,3.745c0.128,0.734,0.674,1.125,1.218,0.873
			c0.764-0.356,1.144-0.533,1.908-0.889C808.981,262.748,809.208,261.451,809.715,261.263z"/>
	</g>
	<g>
		<path fill="#B5956B" d="M807.482,252.089c1.019-0.859,2.038-1.719,3.054-2.579c0.468-0.397,0.818-1.074,0.707-1.491
			c-0.28-1.065-0.57-1.567-1.353-2.343c-0.307-0.306-1.067-0.341-1.644-0.131c-1.252,0.451-2.506,0.902-3.762,1.355
			c-0.51,0.183-1.514-0.667-1.514-0.667c-0.813,0.218-1.221,0.329-2.035,0.548c-0.577,0.155-0.743,0.806-0.368,1.451
			c0.63,1.098,1.267,2.195,1.899,3.293c0.636,1.099,1.269,2.197,1.901,3.294c0.375,0.646,1.018,0.828,1.442,0.404
			c0.597-0.594,0.896-0.893,1.491-1.488C807.303,253.735,807.069,252.438,807.482,252.089z"/>
	</g>
	<g>
		<path fill="#B5956B" d="M802.244,244.23c0.667-1.156,1.33-2.311,1.99-3.468c0.306-0.534,0.4-1.288,0.156-1.643
			c-0.628-0.904-1.073-1.277-2.072-1.74c-0.395-0.181-1.12,0.045-1.592,0.438c-1.023,0.854-2.047,1.707-3.068,2.56
			c-0.417,0.348-1.654-0.107-1.654-0.107c-0.688,0.484-1.034,0.726-1.724,1.21c-0.488,0.342-0.424,1.01,0.148,1.489
			c0.971,0.815,1.943,1.63,2.913,2.445c0.971,0.815,1.94,1.63,2.911,2.445c0.573,0.479,1.239,0.428,1.494-0.113
			c0.356-0.763,0.536-1.145,0.895-1.908C802.642,245.839,801.979,244.701,802.244,244.23z"/>
	</g>
	<g>
		<path fill="#B5956B" d="M794.64,238.637c0.229-1.313,0.454-2.625,0.682-3.939c0.104-0.604-0.063-1.348-0.416-1.597
			c-0.898-0.634-1.444-0.833-2.542-0.926c-0.431-0.036-1.038,0.425-1.346,0.957c-0.669,1.152-1.341,2.303-2.009,3.456
			c-0.272,0.469-1.59,0.464-1.59,0.464c-0.483,0.691-0.725,1.036-1.208,1.727c-0.343,0.49-0.051,1.094,0.65,1.35
			c1.19,0.433,2.382,0.867,3.573,1.301c1.193,0.433,2.382,0.867,3.573,1.301c0.702,0.254,1.312-0.022,1.363-0.618
			c0.076-0.84,0.112-1.259,0.187-2.099C795.558,240.014,794.548,239.171,794.64,238.637z"/>
	</g>
</g>
<g>
	<g>
		<path fill="#DEC894" d="M388.815,206.644c0,10.292-8.344,18.637-18.637,18.637s-18.637-8.344-18.637-18.637
			s8.344-18.637,18.637-18.637S388.815,196.351,388.815,206.644z M370.178,193.128c-7.464,0-13.518,6.051-13.518,13.515
			c0,7.465,6.052,13.516,13.518,13.516c7.465,0,13.517-6.051,13.517-13.516C383.695,199.179,377.643,193.128,370.178,193.128z"/>
		<g>
			<path fill="#DEC894" d="M372.078,187.621c-0.021-0.328-0.27-4.362-0.27-4.362c-0.023-0.371-0.295-0.73-0.613-0.774
				c-0.81-0.112-1.224-0.112-2.033,0c-0.317,0.043-0.59,0.403-0.613,0.774c0,0-0.248,4.035-0.269,4.362
				c-0.02,0.327-0.77,0.554-0.77,0.554c-0.046,0.512-0.068,0.768-0.114,1.281c-0.032,0.364,0.275,0.658,0.686,0.658
				c0.838,0,1.258,0,2.097,0s1.258,0,2.097,0c0.412,0,0.719-0.294,0.686-0.658c-0.045-0.513-0.067-0.769-0.112-1.281
				C372.847,188.175,372.098,187.949,372.078,187.621z"/>
		</g>
		<g>
			<path fill="#DEC894" d="M365.457,188.119c-0.131-0.301-1.744-4.007-1.744-4.007c-0.149-0.341-0.528-0.586-0.842-0.518
				c-0.799,0.172-1.188,0.313-1.911,0.696c-0.283,0.149-0.416,0.58-0.311,0.937c0,0,1.146,3.876,1.239,4.191
				s-0.534,0.784-0.534,0.784c0.133,0.497,0.199,0.745,0.332,1.242c0.094,0.354,0.483,0.524,0.87,0.385
				c0.788-0.287,1.182-0.43,1.97-0.717c0.789-0.287,1.183-0.43,1.97-0.717c0.387-0.141,0.574-0.522,0.42-0.853
				c-0.218-0.466-0.326-0.699-0.545-1.166C366.369,188.375,365.587,188.419,365.457,188.119z"/>
		</g>
		<g>
			<path fill="#DEC894" d="M359.406,190.851c-0.226-0.238-3.01-3.168-3.01-3.168c-0.256-0.27-0.696-0.369-0.968-0.199
				c-0.692,0.435-1.01,0.701-1.557,1.307c-0.217,0.238-0.193,0.688,0.027,0.987c0,0,2.402,3.251,2.598,3.515
				c0.194,0.264-0.234,0.919-0.234,0.919c0.294,0.422,0.441,0.632,0.736,1.054c0.209,0.3,0.633,0.328,0.948,0.064
				c0.642-0.539,0.964-0.808,1.606-1.348c0.643-0.539,0.963-0.808,1.605-1.347c0.315-0.265,0.361-0.688,0.103-0.946
				c-0.364-0.363-0.546-0.544-0.91-0.908C360.351,190.78,359.631,191.089,359.406,190.851z"/>
		</g>
		<g>
			<path fill="#DEC894" d="M354.654,195.488c-0.294-0.147-3.911-1.948-3.911-1.948c-0.334-0.166-0.781-0.109-0.978,0.144
				c-0.502,0.645-0.709,1.004-1.017,1.761c-0.121,0.297,0.054,0.712,0.363,0.918c0,0,3.37,2.233,3.643,2.414
				c0.273,0.181,0.095,0.943,0.095,0.943c0.421,0.295,0.631,0.443,1.052,0.739c0.299,0.21,0.708,0.091,0.913-0.265
				c0.419-0.726,0.629-1.089,1.049-1.815c0.419-0.727,0.628-1.089,1.048-1.816c0.207-0.356,0.104-0.77-0.228-0.923
				c-0.466-0.217-0.699-0.325-1.166-0.542C355.518,195.098,354.948,195.634,354.654,195.488z"/>
		</g>
		<g>
			<path fill="#DEC894" d="M351.774,201.47c-0.326-0.037-4.343-0.493-4.343-0.493c-0.369-0.041-0.771,0.165-0.869,0.47
				c-0.251,0.778-0.323,1.186-0.353,2.003c-0.013,0.321,0.293,0.65,0.655,0.737c0,0,3.931,0.946,4.25,1.023
				c0.319,0.077,0.411,0.854,0.411,0.854c0.497,0.134,0.745,0.201,1.242,0.335c0.354,0.095,0.695-0.157,0.768-0.563
				c0.146-0.825,0.219-1.238,0.364-2.063c0.146-0.826,0.218-1.238,0.364-2.064c0.07-0.405-0.166-0.758-0.53-0.79
				c-0.512-0.045-0.769-0.066-1.28-0.111C352.454,200.808,352.101,201.507,351.774,201.47z"/>
		</g>
		<g>
			<path fill="#DEC894" d="M351.115,208.077c-0.319,0.077-4.249,1.022-4.249,1.022c-0.361,0.087-0.668,0.418-0.656,0.739
				c0.03,0.816,0.103,1.225,0.354,2.002c0.098,0.306,0.499,0.511,0.869,0.469c0,0,4.018-0.455,4.343-0.492
				c0.326-0.037,0.679,0.662,0.679,0.662c0.514-0.044,0.77-0.066,1.281-0.111c0.364-0.031,0.602-0.384,0.529-0.79
				c-0.146-0.826-0.219-1.238-0.364-2.064s-0.219-1.239-0.364-2.064c-0.072-0.405-0.416-0.657-0.768-0.562
				c-0.497,0.134-0.745,0.201-1.242,0.334C351.526,207.222,351.434,208,351.115,208.077z"/>
		</g>
		<g>
			<path fill="#DEC894" d="M352.754,214.511c-0.273,0.181-3.643,2.414-3.643,2.414c-0.31,0.205-0.484,0.621-0.363,0.918
				c0.308,0.757,0.515,1.116,1.017,1.761c0.196,0.253,0.644,0.31,0.978,0.144c0,0,3.618-1.801,3.912-1.947
				c0.293-0.147,0.864,0.39,0.864,0.39c0.467-0.216,0.7-0.325,1.166-0.542c0.331-0.154,0.433-0.568,0.228-0.923
				c-0.42-0.726-0.629-1.089-1.049-1.816c-0.419-0.726-0.629-1.088-1.048-1.815c-0.206-0.356-0.614-0.475-0.914-0.265
				c-0.421,0.296-0.631,0.443-1.052,0.739C352.849,213.567,353.028,214.329,352.754,214.511z"/>
		</g>
		<g>
			<path fill="#DEC894" d="M356.497,219.994c-0.195,0.265-2.598,3.516-2.598,3.516c-0.221,0.298-0.243,0.749-0.027,0.987
				c0.547,0.606,0.864,0.873,1.557,1.307c0.271,0.17,0.711,0.07,0.968-0.199c0,0,2.784-2.93,3.01-3.168
				c0.226-0.238,0.945,0.071,0.945,0.071c0.364-0.364,0.546-0.545,0.91-0.909c0.259-0.258,0.213-0.681-0.103-0.946
				c-0.643-0.538-0.964-0.808-1.605-1.347c-0.643-0.539-0.963-0.808-1.606-1.348c-0.315-0.265-0.739-0.236-0.948,0.064
				c-0.295,0.421-0.441,0.632-0.736,1.054C356.262,219.076,356.691,219.731,356.497,219.994z"/>
		</g>
		<g>
			<path fill="#DEC894" d="M361.887,223.869c-0.094,0.316-1.239,4.191-1.239,4.191c-0.104,0.356,0.028,0.788,0.312,0.938
				c0.723,0.382,1.112,0.523,1.911,0.695c0.313,0.068,0.692-0.177,0.842-0.518c0,0,1.613-3.706,1.744-4.007
				c0.131-0.3,0.914-0.256,0.914-0.256c0.217-0.466,0.326-0.699,0.545-1.166c0.153-0.331-0.033-0.712-0.42-0.853
				c-0.789-0.287-1.183-0.43-1.971-0.717s-1.182-0.43-1.97-0.717c-0.386-0.14-0.776,0.032-0.87,0.384
				c-0.132,0.498-0.199,0.746-0.332,1.243C361.353,223.086,361.981,223.555,361.887,223.869z"/>
		</g>
		<g>
			<path fill="#DEC894" d="M368.279,225.666c0.021,0.329,0.27,4.363,0.27,4.363c0.023,0.371,0.296,0.73,0.613,0.774
				c0.81,0.112,1.225,0.112,2.033,0c0.318-0.044,0.59-0.403,0.613-0.774c0,0,0.249-4.035,0.27-4.362
				c0.021-0.327,0.771-0.553,0.771-0.553c0.046-0.513,0.067-0.769,0.114-1.281c0.031-0.364-0.274-0.659-0.687-0.659
				c-0.838,0-1.257,0-2.096,0s-1.257,0-2.097,0c-0.412,0-0.719,0.295-0.687,0.658c0.046,0.513,0.067,0.768,0.112,1.281
				C367.509,225.112,368.259,225.338,368.279,225.666z"/>
		</g>
		<g>
			<path fill="#DEC894" d="M374.899,225.168c0.131,0.301,1.746,4.007,1.746,4.007c0.147,0.34,0.526,0.585,0.841,0.518
				c0.799-0.172,1.188-0.313,1.911-0.695c0.283-0.15,0.416-0.581,0.312-0.938c0,0-1.146-3.876-1.239-4.191
				c-0.093-0.314,0.534-0.783,0.534-0.783c-0.133-0.498-0.199-0.746-0.332-1.243c-0.094-0.353-0.482-0.524-0.869-0.383
				c-0.788,0.287-1.182,0.43-1.971,0.716c-0.787,0.287-1.182,0.43-1.97,0.717c-0.387,0.141-0.575,0.523-0.42,0.854
				c0.218,0.466,0.327,0.699,0.544,1.165C373.986,224.911,374.769,224.867,374.899,225.168z"/>
		</g>
		<g>
			<path fill="#DEC894" d="M380.951,222.437c0.227,0.237,3.01,3.167,3.01,3.167c0.256,0.269,0.697,0.369,0.969,0.199
				c0.691-0.435,1.009-0.7,1.558-1.307c0.216-0.238,0.192-0.688-0.028-0.987c0,0-2.402-3.251-2.599-3.516
				c-0.194-0.263,0.234-0.918,0.234-0.918c-0.294-0.421-0.441-0.632-0.736-1.054c-0.209-0.3-0.634-0.329-0.948-0.063
				c-0.642,0.539-0.963,0.808-1.605,1.347s-0.963,0.808-1.606,1.347c-0.313,0.265-0.36,0.688-0.102,0.946
				c0.364,0.363,0.546,0.544,0.909,0.908C380.005,222.507,380.725,222.199,380.951,222.437z"/>
		</g>
		<g>
			<path fill="#DEC894" d="M385.703,217.8c0.293,0.146,3.912,1.947,3.912,1.947c0.333,0.166,0.78,0.109,0.979-0.144
				c0.5-0.645,0.707-1.004,1.016-1.761c0.121-0.298-0.055-0.712-0.363-0.918c0,0-3.37-2.233-3.645-2.414
				c-0.272-0.181-0.095-0.944-0.095-0.944c-0.422-0.295-0.631-0.444-1.053-0.739c-0.3-0.209-0.709-0.092-0.914,0.265
				c-0.418,0.726-0.629,1.089-1.047,1.815c-0.42,0.727-0.63,1.09-1.049,1.816c-0.206,0.356-0.104,0.77,0.227,0.923
				c0.468,0.217,0.699,0.325,1.166,0.542C384.837,218.189,385.41,217.653,385.703,217.8z"/>
		</g>
		<g>
			<path fill="#DEC894" d="M388.582,211.818c0.328,0.036,4.345,0.491,4.345,0.491c0.369,0.042,0.77-0.163,0.869-0.469
				c0.25-0.778,0.322-1.186,0.354-2.002c0.012-0.32-0.295-0.651-0.656-0.738c0,0-3.931-0.946-4.251-1.023
				c-0.318-0.076-0.41-0.854-0.41-0.854c-0.498-0.134-0.746-0.201-1.242-0.335c-0.354-0.094-0.697,0.157-0.769,0.562
				c-0.146,0.825-0.218,1.238-0.364,2.064c-0.146,0.826-0.219,1.238-0.365,2.064c-0.07,0.405,0.166,0.759,0.529,0.79
				c0.515,0.045,0.77,0.066,1.282,0.111C387.903,212.479,388.255,211.781,388.582,211.818z"/>
		</g>
		<g>
			<path fill="#DEC894" d="M389.242,205.212c0.319-0.078,4.251-1.023,4.251-1.023c0.359-0.087,0.668-0.417,0.654-0.738
				c-0.029-0.817-0.102-1.225-0.354-2.003c-0.1-0.306-0.5-0.511-0.869-0.469c0,0-4.017,0.455-4.343,0.492
				c-0.326,0.038-0.679-0.661-0.679-0.661c-0.513,0.043-0.769,0.065-1.28,0.11c-0.365,0.032-0.602,0.384-0.529,0.79
				c0.145,0.825,0.218,1.238,0.363,2.064c0.146,0.826,0.219,1.239,0.363,2.064c0.071,0.405,0.416,0.657,0.768,0.563
				c0.498-0.134,0.744-0.201,1.242-0.334C388.83,206.065,388.921,205.287,389.242,205.212z"/>
		</g>
		<g>
			<path fill="#DEC894" d="M387.602,198.778c0.272-0.182,3.645-2.415,3.645-2.415c0.309-0.206,0.484-0.622,0.363-0.918
				c-0.309-0.756-0.516-1.115-1.018-1.761c-0.197-0.253-0.645-0.309-0.979-0.144c0,0-3.618,1.801-3.913,1.948
				c-0.293,0.146-0.863-0.391-0.863-0.391c-0.467,0.216-0.699,0.325-1.166,0.542c-0.332,0.154-0.434,0.568-0.227,0.923
				c0.418,0.726,0.628,1.089,1.047,1.815c0.42,0.727,0.629,1.089,1.047,1.816c0.207,0.355,0.615,0.475,0.914,0.265
				c0.422-0.296,0.631-0.443,1.053-0.738C387.507,199.721,387.328,198.958,387.602,198.778z"/>
		</g>
		<g>
			<path fill="#DEC894" d="M383.861,193.293c0.194-0.265,2.596-3.515,2.596-3.515c0.222-0.299,0.244-0.75,0.029-0.988
				c-0.548-0.605-0.865-0.872-1.558-1.307c-0.272-0.17-0.712-0.07-0.968,0.199c0,0-2.785,2.931-3.01,3.169
				c-0.226,0.237-0.945-0.071-0.945-0.071c-0.365,0.363-0.547,0.545-0.911,0.908c-0.259,0.259-0.214,0.682,0.103,0.945
				c0.643,0.539,0.963,0.809,1.605,1.348c0.642,0.539,0.963,0.809,1.604,1.348c0.316,0.265,0.74,0.236,0.949-0.063
				c0.295-0.422,0.44-0.632,0.737-1.054C384.094,194.212,383.666,193.556,383.861,193.293z"/>
		</g>
		<g>
			<path fill="#DEC894" d="M378.47,189.418c0.092-0.315,1.238-4.191,1.238-4.191c0.104-0.356-0.028-0.788-0.312-0.937
				c-0.722-0.382-1.112-0.523-1.911-0.696c-0.314-0.068-0.691,0.177-0.841,0.518c0,0-1.614,3.706-1.746,4.007
				c-0.13,0.3-0.912,0.257-0.912,0.257c-0.219,0.466-0.327,0.698-0.545,1.165c-0.153,0.331,0.033,0.713,0.42,0.853
				c0.787,0.287,1.183,0.43,1.97,0.716c0.789,0.288,1.183,0.431,1.971,0.718c0.387,0.14,0.775-0.031,0.869-0.384
				c0.134-0.498,0.199-0.746,0.334-1.242C379.003,190.202,378.375,189.733,378.47,189.418z"/>
		</g>
		<circle fill="#DEC894" cx="370.178" cy="206.644" r="3.782"/>
	</g>
</g>
<g>
	<g>
		<g>
			<g>
				<path fill="#A09A8E" d="M751.498,180.57c0-0.179,0-0.906,0-0.906c0-0.203-0.166-0.369-0.367-0.369h-1.291
					c-0.202,0-0.366,0.166-0.366,0.369c0,0,0,0.727,0,0.906c0,0.179-0.388,0.282-0.388,0.282v0.712c0,0.203,0.162,0.367,0.364,0.367
					h1.036h1.032c0.202,0,0.368-0.164,0.368-0.367v-0.712C751.887,180.852,751.498,180.749,751.498,180.57z"/>
			</g>
			<g>
				<path fill="#A09A8E" d="M747.711,180.71c-0.03-0.177-0.143-0.897-0.143-0.897c-0.029-0.199-0.218-0.337-0.418-0.303
					l-1.275,0.201c-0.201,0.032-0.337,0.22-0.305,0.419c0,0,0.112,0.72,0.143,0.897c0.026,0.175-0.342,0.337-0.342,0.337l0.11,0.704
					c0.034,0.201,0.221,0.337,0.422,0.305l1.021-0.163l1.021-0.162c0.2-0.03,0.335-0.218,0.305-0.417l-0.11-0.707
					C748.139,180.924,747.737,180.885,747.711,180.71z"/>
			</g>
			<g>
				<path fill="#A09A8E" d="M743.992,181.437c-0.058-0.168-0.279-0.86-0.279-0.86c-0.064-0.193-0.272-0.298-0.464-0.236
					l-1.228,0.399c-0.193,0.062-0.298,0.271-0.235,0.462c0,0,0.226,0.691,0.281,0.861c0.055,0.172-0.284,0.388-0.284,0.388
					l0.221,0.677c0.061,0.193,0.27,0.298,0.461,0.236l0.982-0.318l0.985-0.321c0.19-0.064,0.296-0.271,0.233-0.462l-0.22-0.681
					C744.446,181.584,744.046,181.609,743.992,181.437z"/>
			</g>
			<g>
				<path fill="#A09A8E" d="M740.43,182.74c-0.081-0.156-0.408-0.807-0.408-0.807c-0.095-0.18-0.313-0.252-0.495-0.161l-1.149,0.585
					c-0.181,0.094-0.254,0.313-0.161,0.494c0,0,0.33,0.649,0.41,0.81c0.083,0.158-0.218,0.425-0.218,0.425l0.325,0.636
					c0.092,0.179,0.313,0.252,0.494,0.159l0.919-0.468l0.923-0.468c0.18-0.093,0.254-0.313,0.16-0.494l-0.322-0.636
					C740.904,182.815,740.512,182.899,740.43,182.74z"/>
			</g>
			<g>
				<path fill="#A09A8E" d="M737.12,184.584c-0.107-0.146-0.534-0.735-0.534-0.735c-0.119-0.162-0.348-0.2-0.512-0.08l-1.043,0.759
					c-0.165,0.12-0.201,0.349-0.083,0.513c0,0,0.43,0.587,0.532,0.732c0.106,0.144-0.148,0.458-0.148,0.458l0.42,0.575
					c0.118,0.165,0.347,0.201,0.513,0.081l0.837-0.608l0.835-0.607c0.164-0.12,0.199-0.349,0.082-0.51l-0.42-0.578
					C737.599,184.583,737.227,184.729,737.12,184.584z"/>
			</g>
			<g>
				<path fill="#A09A8E" d="M734.137,186.922c-0.126-0.125-0.639-0.64-0.639-0.64c-0.146-0.146-0.378-0.146-0.52-0.001l-0.915,0.913
					c-0.141,0.142-0.141,0.375,0.003,0.518c0,0,0.512,0.515,0.641,0.642c0.125,0.126-0.079,0.473-0.079,0.473l0.506,0.503
					c0.143,0.142,0.375,0.142,0.519,0l0.731-0.732l0.731-0.729c0.143-0.146,0.143-0.377,0-0.521l-0.506-0.505
					C734.609,186.846,734.265,187.049,734.137,186.922z"/>
			</g>
			<g>
				<path fill="#A09A8E" d="M731.558,189.7c-0.144-0.104-0.733-0.534-0.733-0.534c-0.165-0.119-0.394-0.084-0.513,0.081
					l-0.759,1.045c-0.119,0.163-0.083,0.392,0.082,0.513c0,0,0.587,0.427,0.733,0.534c0.145,0.102-0.003,0.477-0.003,0.477
					l0.577,0.419c0.165,0.12,0.393,0.084,0.512-0.082l0.606-0.835l0.61-0.837c0.118-0.164,0.083-0.393-0.084-0.511l-0.575-0.419
					C732.014,189.549,731.702,189.805,731.558,189.7z"/>
			</g>
			<g>
				<path fill="#A09A8E" d="M729.442,192.845c-0.158-0.082-0.807-0.412-0.807-0.412c-0.182-0.093-0.401-0.021-0.494,0.16
					l-0.586,1.149c-0.094,0.181-0.02,0.403,0.16,0.494c0,0,0.648,0.33,0.809,0.414c0.158,0.078,0.071,0.471,0.071,0.471l0.636,0.322
					c0.182,0.095,0.403,0.023,0.494-0.16l0.471-0.92l0.468-0.922c0.093-0.179,0.02-0.401-0.161-0.492l-0.636-0.325
					C729.869,192.627,729.602,192.926,729.442,192.845z"/>
			</g>
			<g>
				<path fill="#A09A8E" d="M727.849,196.283c-0.17-0.056-0.862-0.28-0.862-0.28c-0.193-0.063-0.399,0.043-0.463,0.235l-0.397,1.227
					c-0.062,0.193,0.043,0.399,0.235,0.463c0,0,0.691,0.223,0.861,0.279c0.171,0.056,0.146,0.457,0.146,0.457l0.677,0.222
					c0.193,0.059,0.399-0.045,0.462-0.239l0.321-0.983l0.319-0.981c0.062-0.192-0.044-0.401-0.234-0.461l-0.68-0.221
					C728.234,195.998,728.016,196.337,727.849,196.283z"/>
			</g>
			<g>
				<path fill="#A09A8E" d="M726.81,199.928c-0.179-0.028-0.896-0.142-0.896-0.142c-0.2-0.031-0.39,0.105-0.42,0.304l-0.202,1.275
					c-0.032,0.2,0.103,0.388,0.304,0.42c0,0,0.719,0.114,0.896,0.142c0.177,0.026,0.217,0.427,0.217,0.427l0.702,0.112
					c0.201,0.031,0.391-0.104,0.422-0.304l0.161-1.022l0.162-1.02c0.031-0.202-0.104-0.39-0.305-0.421l-0.705-0.11
					C727.146,199.589,726.985,199.956,726.81,199.928z"/>
			</g>
			<g>
				<path fill="#A09A8E" d="M726.354,203.69c-0.179,0-0.905,0-0.905,0c-0.204,0-0.368,0.165-0.368,0.367v1.291
					c0,0.205,0.164,0.369,0.368,0.369c0,0,0.728,0,0.905,0s0.278,0.385,0.278,0.385l0.715,0.002c0.203-0.002,0.366-0.166,0.366-0.37
					v-1.033v-1.032c0-0.204-0.163-0.368-0.366-0.368h-0.715C726.632,203.302,726.531,203.69,726.354,203.69z"/>
			</g>
			<g>
				<path fill="#A09A8E" d="M726.492,207.479c-0.176,0.028-0.896,0.142-0.896,0.142c-0.199,0.03-0.336,0.218-0.304,0.419
					l0.202,1.273c0.03,0.202,0.22,0.338,0.42,0.306c0,0,0.717-0.113,0.896-0.142c0.177-0.028,0.337,0.339,0.337,0.339l0.705-0.109
					c0.2-0.034,0.338-0.22,0.305-0.421l-0.162-1.02l-0.161-1.02c-0.031-0.202-0.221-0.338-0.422-0.306l-0.702,0.112
					C726.709,207.05,726.669,207.451,726.492,207.479z"/>
			</g>
			<g>
				<path fill="#A09A8E" d="M727.221,211.196c-0.168,0.056-0.859,0.282-0.859,0.282c-0.192,0.061-0.299,0.269-0.238,0.461l0.4,1.227
					c0.063,0.194,0.268,0.298,0.462,0.236c0,0,0.693-0.226,0.86-0.279c0.172-0.058,0.389,0.283,0.389,0.283l0.677-0.22
					c0.193-0.063,0.299-0.27,0.234-0.462l-0.316-0.984l-0.321-0.981c-0.063-0.194-0.27-0.299-0.462-0.237l-0.679,0.22
					C727.369,210.742,727.394,211.143,727.221,211.196z"/>
			</g>
			<g>
				<path fill="#A09A8E" d="M728.525,214.758c-0.161,0.08-0.807,0.412-0.807,0.412c-0.182,0.091-0.257,0.313-0.161,0.494
					l0.585,1.148c0.092,0.179,0.312,0.253,0.493,0.162c0,0,0.648-0.332,0.809-0.414c0.158-0.081,0.425,0.22,0.425,0.22l0.636-0.324
					c0.179-0.094,0.252-0.314,0.159-0.494l-0.467-0.921l-0.47-0.922c-0.092-0.183-0.313-0.253-0.494-0.16l-0.636,0.323
					C728.598,214.282,728.686,214.677,728.525,214.758z"/>
			</g>
			<g>
				<path fill="#A09A8E" d="M730.368,218.067c-0.144,0.106-0.733,0.535-0.733,0.535c-0.165,0.12-0.201,0.346-0.082,0.513
					l0.759,1.044c0.119,0.164,0.348,0.2,0.513,0.08c0,0,0.587-0.427,0.733-0.533c0.145-0.104,0.456,0.149,0.456,0.149l0.576-0.418
					c0.164-0.12,0.199-0.35,0.082-0.512l-0.611-0.837l-0.604-0.837c-0.12-0.164-0.35-0.2-0.512-0.08l-0.577,0.417
					C730.365,217.589,730.513,217.964,730.368,218.067z"/>
			</g>
			<g>
				<path fill="#A09A8E" d="M732.707,221.052c-0.129,0.125-0.641,0.639-0.641,0.639c-0.144,0.144-0.144,0.376,0,0.519l0.912,0.914
					c0.142,0.144,0.373,0.144,0.52,0c0,0,0.513-0.515,0.639-0.641c0.128-0.127,0.473,0.076,0.473,0.076l0.504-0.501
					c0.145-0.144,0.145-0.377,0-0.52l-0.732-0.733l-0.729-0.728c-0.146-0.145-0.376-0.146-0.519-0.002l-0.506,0.506
					C732.628,220.579,732.832,220.924,732.707,221.052z"/>
			</g>
			<g>
				<path fill="#A09A8E" d="M735.483,223.63c-0.104,0.146-0.533,0.734-0.533,0.734c-0.12,0.165-0.084,0.394,0.081,0.512l1.045,0.758
					c0.163,0.122,0.391,0.084,0.513-0.08c0,0,0.427-0.587,0.531-0.732c0.106-0.146,0.479,0.001,0.479,0.001l0.421-0.576
					c0.118-0.166,0.081-0.395-0.08-0.513l-0.838-0.609l-0.837-0.608c-0.163-0.119-0.392-0.082-0.511,0.082l-0.422,0.576
					C735.332,223.177,735.587,223.486,735.483,223.63z"/>
			</g>
			<g>
				<path fill="#A09A8E" d="M738.628,225.744c-0.079,0.161-0.412,0.809-0.412,0.809c-0.093,0.179-0.02,0.402,0.161,0.494
					l1.152,0.585c0.179,0.091,0.4,0.019,0.492-0.16c0,0,0.329-0.648,0.408-0.809c0.082-0.158,0.478-0.07,0.478-0.07l0.322-0.638
					c0.094-0.18,0.02-0.4-0.159-0.494l-0.924-0.468l-0.919-0.472c-0.181-0.091-0.402-0.019-0.494,0.162l-0.325,0.637
					C738.408,225.32,738.71,225.585,738.628,225.744z"/>
			</g>
			<g>
				<path fill="#A09A8E" d="M742.068,227.34c-0.057,0.172-0.283,0.863-0.283,0.863c-0.062,0.19,0.044,0.399,0.236,0.461l1.228,0.4
					c0.191,0.062,0.399-0.042,0.462-0.237c0,0,0.224-0.693,0.28-0.863c0.055-0.168,0.455-0.146,0.455-0.146l0.22-0.677
					c0.063-0.192-0.043-0.401-0.233-0.463l-0.985-0.319l-0.98-0.32c-0.193-0.062-0.399,0.041-0.463,0.235l-0.219,0.68
					C741.785,226.956,742.122,227.17,742.068,227.34z"/>
			</g>
			<g>
				<path fill="#A09A8E" d="M745.711,228.378c-0.028,0.179-0.144,0.895-0.144,0.895c-0.029,0.201,0.106,0.39,0.307,0.421
					l1.275,0.202c0.201,0.029,0.387-0.106,0.419-0.306c0,0,0.112-0.718,0.14-0.895c0.029-0.175,0.43-0.214,0.43-0.214l0.111-0.704
					c0.029-0.201-0.104-0.388-0.307-0.42l-1.021-0.162l-1.018-0.163c-0.201-0.031-0.39,0.103-0.422,0.304l-0.111,0.705
					C745.371,228.043,745.739,228.203,745.711,228.378z"/>
			</g>
			<g>
				<path fill="#A09A8E" d="M749.475,228.835c0,0.179,0,0.906,0,0.906c0,0.204,0.165,0.367,0.368,0.367h1.288
					c0.205,0,0.369-0.164,0.369-0.367c0,0,0-0.727,0-0.906c0-0.181,0.387-0.28,0.387-0.28l0.001-0.714
					c-0.001-0.201-0.164-0.367-0.368-0.367h-1.033h-1.033c-0.204,0-0.367,0.164-0.365,0.367l-0.002,0.714
					C749.086,228.556,749.475,228.656,749.475,228.835z"/>
			</g>
			<g>
				<path fill="#A09A8E" d="M753.262,228.695c0.027,0.179,0.142,0.895,0.142,0.895c0.03,0.2,0.218,0.335,0.419,0.306l1.276-0.202
					c0.199-0.031,0.338-0.22,0.303-0.421c0,0-0.114-0.718-0.141-0.895c-0.025-0.177,0.34-0.337,0.34-0.337l-0.111-0.705
					c-0.032-0.199-0.22-0.335-0.421-0.304l-1.021,0.163l-1.021,0.162c-0.199,0.03-0.335,0.219-0.305,0.42l0.11,0.704
					C752.833,228.481,753.234,228.52,753.262,228.695z"/>
			</g>
			<g>
				<path fill="#A09A8E" d="M756.98,227.965c0.057,0.171,0.281,0.863,0.281,0.863c0.062,0.195,0.27,0.299,0.46,0.237l1.228-0.4
					c0.194-0.064,0.297-0.271,0.237-0.461c0,0-0.227-0.691-0.281-0.863c-0.057-0.169,0.281-0.384,0.281-0.384l-0.219-0.68
					c-0.063-0.192-0.27-0.299-0.462-0.235l-0.984,0.32l-0.984,0.318c-0.188,0.063-0.296,0.271-0.231,0.462l0.219,0.678
					C756.524,227.819,756.926,227.797,756.98,227.965z"/>
			</g>
			<g>
				<path fill="#A09A8E" d="M760.54,226.663c0.083,0.161,0.41,0.809,0.41,0.809c0.095,0.179,0.315,0.251,0.496,0.159l1.151-0.584
					c0.179-0.093,0.251-0.313,0.159-0.494c0,0-0.331-0.648-0.412-0.809c-0.082-0.16,0.218-0.424,0.218-0.424l-0.322-0.637
					c-0.094-0.178-0.314-0.253-0.495-0.162l-0.92,0.472l-0.923,0.468c-0.18,0.094-0.254,0.314-0.161,0.494l0.323,0.638
					C760.067,226.593,760.46,226.505,760.54,226.663z"/>
			</g>
			<g>
				<path fill="#A09A8E" d="M763.852,224.822c0.104,0.143,0.534,0.732,0.534,0.732c0.118,0.166,0.348,0.203,0.511,0.082l1.044-0.758
					c0.165-0.12,0.202-0.347,0.081-0.511c0,0-0.425-0.589-0.533-0.734c-0.104-0.144,0.15-0.455,0.15-0.455l-0.419-0.578
					c-0.118-0.164-0.35-0.199-0.511-0.08l-0.839,0.608l-0.835,0.607c-0.165,0.12-0.201,0.349-0.082,0.513l0.418,0.579
					C763.371,224.823,763.747,224.676,763.852,224.822z"/>
			</g>
			<g>
				<path fill="#A09A8E" d="M766.834,222.482c0.127,0.126,0.641,0.641,0.641,0.641c0.146,0.144,0.377,0.144,0.52,0l0.911-0.914
					c0.144-0.143,0.144-0.375,0-0.517c0,0-0.514-0.517-0.641-0.641c-0.127-0.127,0.077-0.473,0.077-0.473l-0.502-0.503
					c-0.146-0.142-0.377-0.145-0.521,0l-0.73,0.73l-0.729,0.731c-0.146,0.143-0.146,0.376,0,0.52l0.503,0.505
					C766.361,222.561,766.707,222.355,766.834,222.482z"/>
			</g>
			<g>
				<path fill="#A09A8E" d="M769.414,219.706c0.144,0.104,0.733,0.533,0.733,0.533c0.164,0.12,0.394,0.084,0.512-0.082l0.76-1.042
					c0.12-0.167,0.083-0.393-0.082-0.513c0,0-0.588-0.429-0.733-0.535c-0.145-0.103,0.003-0.478,0.003-0.478l-0.576-0.419
					c-0.166-0.118-0.393-0.084-0.513,0.082l-0.606,0.837l-0.61,0.835c-0.119,0.164-0.083,0.394,0.082,0.512l0.578,0.418
					C768.961,219.855,769.27,219.601,769.414,219.706z"/>
			</g>
			<g>
				<path fill="#A09A8E" d="M771.527,216.559c0.16,0.082,0.809,0.414,0.809,0.414c0.18,0.091,0.403,0.019,0.494-0.161l0.586-1.15
					c0.094-0.181,0.02-0.4-0.16-0.494c0,0-0.649-0.33-0.81-0.41c-0.16-0.082-0.069-0.476-0.069-0.476l-0.637-0.325
					c-0.182-0.089-0.403-0.021-0.494,0.162l-0.471,0.922l-0.47,0.921c-0.091,0.18-0.02,0.4,0.16,0.494l0.637,0.324
					C771.104,216.781,771.369,216.479,771.527,216.559z"/>
			</g>
			<g>
				<path fill="#A09A8E" d="M773.126,213.123c0.169,0.056,0.86,0.282,0.86,0.282c0.192,0.061,0.398-0.045,0.462-0.237l0.4-1.229
					c0.061-0.192-0.046-0.4-0.236-0.461c0,0-0.693-0.224-0.863-0.28c-0.171-0.056-0.146-0.457-0.146-0.457l-0.677-0.219
					c-0.195-0.061-0.399,0.042-0.462,0.233l-0.319,0.984l-0.321,0.983c-0.062,0.192,0.044,0.399,0.237,0.46l0.679,0.222
					C772.739,213.406,772.954,213.066,773.126,213.123z"/>
			</g>
			<g>
				<path fill="#A09A8E" d="M774.162,209.478c0.18,0.026,0.896,0.142,0.896,0.142c0.202,0.03,0.391-0.106,0.421-0.306l0.201-1.275
					c0.032-0.199-0.104-0.387-0.305-0.417c0,0-0.717-0.114-0.895-0.143c-0.177-0.027-0.216-0.426-0.216-0.426l-0.705-0.112
					c-0.2-0.03-0.386,0.104-0.418,0.304l-0.164,1.022l-0.159,1.02c-0.032,0.201,0.102,0.388,0.302,0.419l0.705,0.111
					C773.825,209.816,773.986,209.45,774.162,209.478z"/>
			</g>
			<g>
				<path fill="#A09A8E" d="M774.617,205.715c0.18,0,0.906,0,0.906,0c0.204,0,0.368-0.164,0.368-0.37v-1.29
					c0-0.201-0.162-0.367-0.368-0.367c0,0-0.727,0-0.906,0s-0.277-0.388-0.277-0.388h-0.713c-0.204,0-0.37,0.164-0.368,0.367
					l-0.002,1.035v1.033c0,0.204,0.166,0.367,0.367,0.366l0.716,0.001C774.34,206.103,774.438,205.715,774.617,205.715z"/>
			</g>
			<g>
				<path fill="#A09A8E" d="M774.479,201.927c0.179-0.028,0.896-0.142,0.896-0.142c0.201-0.032,0.338-0.218,0.305-0.42l-0.201-1.275
					c-0.032-0.199-0.219-0.335-0.421-0.302c0,0-0.717,0.114-0.894,0.141c-0.178,0.028-0.339-0.339-0.339-0.339l-0.705,0.11
					c-0.198,0.033-0.334,0.221-0.301,0.421l0.16,1.021l0.162,1.02c0.032,0.199,0.218,0.338,0.418,0.304l0.705-0.112
					C774.265,202.354,774.304,201.955,774.479,201.927z"/>
			</g>
			<g>
				<path fill="#A09A8E" d="M773.749,198.208c0.17-0.055,0.861-0.279,0.861-0.279c0.192-0.063,0.299-0.27,0.235-0.463l-0.397-1.227
					c-0.063-0.192-0.27-0.299-0.462-0.233c0,0-0.691,0.222-0.863,0.279c-0.169,0.054-0.384-0.285-0.384-0.285l-0.679,0.22
					c-0.193,0.063-0.299,0.271-0.234,0.462l0.318,0.984l0.319,0.98c0.061,0.194,0.266,0.301,0.46,0.239l0.682-0.222
					C773.605,198.665,773.579,198.263,773.749,198.208z"/>
			</g>
			<g>
				<path fill="#A09A8E" d="M772.446,194.648c0.16-0.082,0.81-0.412,0.81-0.412c0.18-0.091,0.251-0.312,0.16-0.494l-0.586-1.149
					c-0.091-0.181-0.314-0.253-0.491-0.16c0,0-0.651,0.33-0.812,0.412c-0.158,0.081-0.425-0.218-0.425-0.218l-0.637,0.323
					c-0.178,0.093-0.251,0.313-0.16,0.492l0.47,0.925l0.469,0.917c0.093,0.183,0.313,0.255,0.496,0.162l0.637-0.322
					C772.377,195.122,772.286,194.728,772.446,194.648z"/>
			</g>
			<g>
				<path fill="#A09A8E" d="M770.604,191.337c0.146-0.107,0.733-0.534,0.733-0.534c0.165-0.119,0.202-0.348,0.082-0.512
					l-0.759-1.046c-0.119-0.162-0.348-0.197-0.513-0.079c0,0-0.587,0.426-0.733,0.532c-0.145,0.107-0.453-0.148-0.453-0.148
					l-0.579,0.419c-0.164,0.118-0.2,0.347-0.081,0.513l0.61,0.835l0.606,0.837c0.12,0.164,0.347,0.201,0.509,0.08l0.58-0.419
					C770.606,191.814,770.459,191.441,770.604,191.337z"/>
			</g>
			<g>
				<path fill="#A09A8E" d="M768.265,188.354c0.127-0.129,0.641-0.642,0.641-0.642c0.144-0.144,0.144-0.376,0-0.518l-0.911-0.913
					c-0.143-0.145-0.374-0.145-0.52,0c0,0-0.514,0.514-0.641,0.641s-0.473-0.077-0.473-0.077l-0.503,0.503
					c-0.145,0.143-0.145,0.376,0,0.521l0.729,0.73l0.73,0.73c0.145,0.142,0.376,0.142,0.52,0l0.505-0.503
					C768.343,188.828,768.141,188.479,768.265,188.354z"/>
			</g>
			<g>
				<path fill="#A09A8E" d="M765.488,185.773c0.106-0.146,0.533-0.732,0.533-0.732c0.121-0.164,0.084-0.393-0.081-0.513
					l-1.044-0.759c-0.164-0.12-0.393-0.084-0.511,0.08c0,0-0.429,0.587-0.534,0.735c-0.104,0.143-0.48-0.002-0.48-0.002
					l-0.418,0.575c-0.118,0.165-0.083,0.394,0.082,0.513l0.835,0.61l0.837,0.607c0.163,0.118,0.395,0.084,0.513-0.082l0.419-0.575
					C765.639,186.231,765.385,185.919,765.488,185.773z"/>
			</g>
			<g>
				<path fill="#A09A8E" d="M762.344,183.66c0.079-0.161,0.412-0.808,0.412-0.808c0.091-0.181,0.021-0.4-0.161-0.494l-1.149-0.587
					c-0.182-0.091-0.401-0.019-0.495,0.163c0,0-0.329,0.646-0.411,0.807c-0.081,0.161-0.475,0.075-0.475,0.075l-0.323,0.634
					c-0.09,0.179-0.019,0.401,0.161,0.494l0.923,0.468l0.92,0.47c0.181,0.091,0.401,0.02,0.494-0.159l0.323-0.638
					C762.563,184.086,762.262,183.818,762.344,183.66z"/>
			</g>
			<g>
				<path fill="#A09A8E" d="M758.905,182.063c0.056-0.172,0.281-0.861,0.281-0.861c0.06-0.192-0.043-0.399-0.237-0.46l-1.228-0.399
					c-0.19-0.062-0.398,0.042-0.459,0.233c0,0-0.226,0.693-0.282,0.865c-0.055,0.17-0.456,0.146-0.456,0.146l-0.219,0.679
					c-0.063,0.19,0.044,0.398,0.231,0.46l0.986,0.321l0.982,0.318c0.192,0.062,0.399-0.041,0.462-0.235l0.221-0.678
					C759.188,182.452,758.849,182.235,758.905,182.063z"/>
			</g>
			<g>
				<path fill="#A09A8E" d="M755.261,181.027c0.026-0.179,0.141-0.897,0.141-0.897c0.035-0.201-0.104-0.387-0.305-0.419
					l-1.274-0.201c-0.201-0.032-0.389,0.104-0.419,0.303c0,0-0.114,0.718-0.142,0.897c-0.027,0.175-0.429,0.214-0.429,0.214
					l-0.112,0.705c-0.027,0.199,0.107,0.388,0.307,0.419l1.021,0.162l1.021,0.161c0.201,0.032,0.389-0.103,0.421-0.303l0.111-0.705
					C755.602,181.363,755.232,181.202,755.261,181.027z"/>
			</g>
			<g>
				<g>
					<path fill="#A09A8E" d="M750.486,228.597c-13.198,0-23.897-10.696-23.897-23.894c0-13.196,10.699-23.894,23.897-23.894
						c13.194,0,23.894,10.698,23.894,23.894C774.38,217.901,763.681,228.597,750.486,228.597z M772.275,204.703
						c0-12.035-9.759-21.787-21.794-21.787c-12.033,0-21.785,9.752-21.785,21.787c0,12.034,9.752,21.787,21.785,21.787
						C762.517,226.49,772.275,216.74,772.275,204.703z"/>
				</g>
			</g>
			<path fill="#A09A8E" d="M751.634,182.946c0-0.579-0.469-1.047-1.046-1.047h-0.204c-0.579,0-1.046,0.467-1.046,1.047v16.405
				c0,0.578,0.467,1.045,1.046,1.045h0.204c0.577,0,1.046-0.466,1.046-1.045V182.946z"/>
			<path fill="#A09A8E" d="M728.729,203.553c-0.577,0-1.046,0.467-1.046,1.047v0.206c0,0.578,0.469,1.048,1.046,1.048h16.404
				c0.578,0,1.048-0.47,1.048-1.048V204.6c0-0.578-0.468-1.047-1.048-1.047H728.729z"/>
			<path fill="#A09A8E" d="M749.335,226.458c0,0.578,0.469,1.048,1.046,1.048h0.207c0.577,0,1.046-0.469,1.046-1.048v-16.405
				c0-0.576-0.469-1.046-1.046-1.046h-0.207c-0.576,0-1.046,0.468-1.046,1.046V226.458z"/>
			<path fill="#A09A8E" d="M772.243,205.854c0.578,0,1.046-0.47,1.046-1.048V204.6c0-0.578-0.468-1.047-1.046-1.047h-16.405
				c-0.577,0-1.049,0.467-1.049,1.047v0.206c0,0.576,0.471,1.048,1.049,1.048H772.243z"/>
			<g>
				<g>
					<path fill="#A09A8E" d="M750.486,210.176c-3.024,0-5.475-2.45-5.475-5.474c0-3.021,2.45-5.472,5.475-5.472
						c3.023,0,5.474,2.45,5.474,5.472C755.962,207.727,753.51,210.176,750.486,210.176z M753.197,204.703
						c0-1.497-1.214-2.712-2.711-2.712c-1.499,0-2.713,1.214-2.713,2.712c0,1.499,1.214,2.711,2.713,2.711
						C751.983,207.414,753.197,206.202,753.197,204.703z"/>
				</g>
			</g>
			<circle fill="#A09A8E" cx="750.486" cy="204.702" r="1.089"/>
		</g>
	</g>
</g>
<g>
	<g>
		<path fill="#A3B2AD" d="M726.25,288.599c-14.967,18.331-41.956,21.062-60.29,6.097c-18.333-14.965-21.063-41.957-6.099-60.289
			c14.965-18.333,41.958-21.064,60.289-6.1C738.485,243.273,741.215,270.265,726.25,288.599z M670.314,289.36
			c15.387,12.562,38.041,10.27,50.602-5.118c12.559-15.386,10.269-38.042-5.119-50.601c-15.388-12.561-38.043-10.267-50.601,5.119
			C652.634,254.146,654.928,276.801,670.314,289.36z"/>
		<path fill="#A3B2AD" d="M700.293,267.409c-3.263,3.996-9.15,4.591-13.146,1.329c-3.993-3.263-4.59-9.148-1.328-13.143
			c3.262-3.997,9.148-4.591,13.142-1.33C702.957,257.527,703.553,263.413,700.293,267.409z M689.308,266.094
			c2.537,2.069,6.27,1.691,8.339-0.845c2.069-2.537,1.693-6.27-0.844-8.34c-2.534-2.07-6.269-1.692-8.339,0.844
			C686.396,260.289,686.771,264.022,689.308,266.094z"/>
		<path fill="#A3B2AD" d="M723.874,230.354c0.465-0.573,2.363-2.897,2.363-2.897c0.531-0.647,0.432-1.602-0.214-2.131l-4.127-3.368
			c-0.647-0.529-1.602-0.432-2.13,0.215c0,0-1.899,2.326-2.364,2.898c-0.467,0.57-1.972-0.119-1.972-0.119l-1.861,2.281
			c-0.529,0.647-0.434,1.601,0.214,2.13l3.306,2.697l3.302,2.697c0.651,0.528,1.604,0.432,2.132-0.216l1.859-2.279
			C724.382,232.262,723.406,230.924,723.874,230.354z"/>
		<path fill="#A3B2AD" d="M709.608,220.931c0.212-0.707,1.076-3.581,1.076-3.581c0.24-0.802-0.215-1.646-1.015-1.886l-5.103-1.533
			c-0.799-0.24-1.645,0.212-1.885,1.014c0,0-0.863,2.875-1.077,3.581c-0.21,0.708-1.867,0.646-1.867,0.646l-0.846,2.819
			c-0.243,0.8,0.211,1.644,1.013,1.886l4.085,1.229l4.086,1.227c0.8,0.241,1.642-0.216,1.886-1.014l0.847-2.821
			C710.809,222.498,709.394,221.637,709.608,220.931z"/>
		<path fill="#A3B2AD" d="M692.823,217.687c-0.077-0.734-0.379-3.721-0.379-3.721c-0.083-0.833-0.825-1.439-1.659-1.354
			l-5.297,0.536c-0.832,0.084-1.44,0.826-1.356,1.658c0,0,0.303,2.986,0.377,3.722c0.075,0.734-1.479,1.311-1.479,1.311l0.299,2.928
			c0.081,0.833,0.825,1.439,1.658,1.354l4.243-0.428l4.242-0.431c0.835-0.084,1.438-0.827,1.356-1.659l-0.297-2.93
			C694.532,218.673,692.894,218.418,692.823,217.687z"/>
		<path fill="#A3B2AD" d="M676.07,221.109c-0.349-0.649-1.771-3.292-1.771-3.292c-0.396-0.736-1.313-1.011-2.05-0.617l-4.69,2.524
			c-0.737,0.394-1.014,1.314-0.615,2.051c0,0,1.422,2.642,1.771,3.292c0.351,0.65-0.865,1.777-0.865,1.777l1.396,2.594
			c0.396,0.736,1.313,1.011,2.052,0.615l3.755-2.021l3.757-2.02c0.737-0.397,1.01-1.316,0.616-2.052l-1.395-2.593
			C678.029,221.368,676.421,221.76,676.07,221.109z"/>
		<path fill="#A3B2AD" d="M661.906,230.684c-0.572-0.465-2.896-2.364-2.896-2.364c-0.652-0.528-1.604-0.432-2.132,0.216
			l-3.368,4.126c-0.527,0.649-0.432,1.601,0.215,2.13c0,0,2.327,1.899,2.898,2.365s-0.121,1.971-0.121,1.971l2.282,1.862
			c0.647,0.528,1.602,0.433,2.132-0.215l2.696-3.304l2.697-3.304c0.529-0.648,0.431-1.602-0.217-2.13l-2.279-1.863
			C663.815,230.173,662.477,231.15,661.906,230.684z"/>
		<path fill="#A3B2AD" d="M652.485,244.951c-0.706-0.213-3.582-1.078-3.582-1.078c-0.802-0.241-1.645,0.213-1.887,1.015l-1.533,5.1
			c-0.24,0.801,0.216,1.646,1.018,1.887c0,0,2.873,0.862,3.58,1.077c0.706,0.213,0.646,1.865,0.646,1.865l2.818,0.849
			c0.802,0.242,1.647-0.213,1.887-1.015l1.228-4.084l1.227-4.084c0.241-0.802-0.214-1.646-1.015-1.888l-2.819-0.846
			C654.051,243.748,653.19,245.163,652.485,244.951z"/>
		<path fill="#A3B2AD" d="M649.24,261.736c-0.737,0.073-3.723,0.375-3.723,0.375c-0.83,0.084-1.438,0.827-1.354,1.657l0.534,5.302
			c0.085,0.832,0.829,1.437,1.66,1.354c0,0,2.987-0.304,3.721-0.377c0.734-0.076,1.311,1.481,1.311,1.481l2.928-0.299
			c0.836-0.083,1.442-0.826,1.356-1.661l-0.433-4.243l-0.426-4.244c-0.085-0.832-0.83-1.438-1.661-1.354l-2.929,0.295
			C650.226,260.026,649.974,261.663,649.24,261.736z"/>
		<path fill="#A3B2AD" d="M652.662,278.485c-0.649,0.349-3.293,1.772-3.293,1.772c-0.736,0.396-1.011,1.314-0.613,2.05l2.522,4.692
			c0.394,0.737,1.314,1.011,2.05,0.615c0,0,2.642-1.421,3.294-1.769c0.648-0.351,1.774,0.862,1.774,0.862l2.595-1.394
			c0.733-0.397,1.009-1.314,0.615-2.052l-2.021-3.756l-2.02-3.755c-0.398-0.737-1.316-1.015-2.053-0.615l-2.593,1.392
			C652.922,276.527,653.313,278.136,652.662,278.485z"/>
		<path fill="#A3B2AD" d="M662.237,292.651c-0.468,0.573-2.365,2.896-2.365,2.896c-0.527,0.648-0.432,1.602,0.217,2.132l4.124,3.368
			c0.649,0.527,1.604,0.432,2.132-0.216c0,0,1.898-2.327,2.364-2.899c0.466-0.571,1.972,0.122,1.972,0.122l1.862-2.283
			c0.528-0.647,0.432-1.603-0.214-2.131l-3.308-2.696l-3.302-2.698c-0.65-0.528-1.602-0.431-2.13,0.215l-1.863,2.283
			C661.727,290.744,662.705,292.081,662.237,292.651z"/>
		<path fill="#A3B2AD" d="M676.503,302.073c-0.213,0.708-1.076,3.581-1.076,3.581c-0.238,0.799,0.214,1.646,1.014,1.888l5.104,1.533
			c0.8,0.237,1.643-0.214,1.888-1.018c0,0,0.86-2.874,1.07-3.579c0.212-0.711,1.869-0.645,1.869-0.645l0.846-2.822
			c0.241-0.798-0.212-1.641-1.013-1.884l-4.086-1.228l-4.083-1.228c-0.804-0.24-1.646,0.216-1.89,1.015l-0.847,2.82
			C675.3,300.505,676.716,301.367,676.503,302.073z"/>
		<path fill="#A3B2AD" d="M693.288,305.319c0.075,0.734,0.376,3.721,0.376,3.721c0.087,0.831,0.828,1.438,1.66,1.354l5.3-0.538
			c0.831-0.083,1.438-0.828,1.354-1.659c0,0-0.302-2.985-0.377-3.721c-0.074-0.735,1.479-1.308,1.479-1.308l-0.297-2.93
			c-0.085-0.835-0.829-1.437-1.66-1.355l-4.244,0.431l-4.241,0.429c-0.832,0.084-1.438,0.828-1.355,1.659l0.296,2.929
			C691.578,304.332,693.215,304.585,693.288,305.319z"/>
		<path fill="#A3B2AD" d="M710.04,301.894c0.35,0.65,1.77,3.293,1.77,3.293c0.398,0.738,1.315,1.012,2.054,0.617l4.688-2.522
			c0.739-0.397,1.013-1.316,0.618-2.052c0,0-1.421-2.642-1.771-3.292c-0.349-0.652,0.864-1.775,0.864-1.775l-1.396-2.595
			c-0.396-0.735-1.313-1.011-2.05-0.615l-3.756,2.02l-3.757,2.022c-0.737,0.394-1.013,1.315-0.617,2.049l1.394,2.595
			C708.08,301.639,709.69,301.243,710.04,301.894z"/>
		<path fill="#A3B2AD" d="M724.202,292.319c0.573,0.468,2.896,2.364,2.896,2.364c0.651,0.53,1.604,0.432,2.134-0.213l3.365-4.128
			c0.529-0.646,0.432-1.603-0.214-2.129c0,0-2.325-1.898-2.897-2.365s0.119-1.972,0.119-1.972l-2.282-1.861
			c-0.647-0.528-1.601-0.433-2.13,0.215l-2.698,3.303l-2.696,3.307c-0.528,0.647-0.433,1.602,0.217,2.13l2.278,1.862
			C722.296,292.83,723.633,291.854,724.202,292.319z"/>
		<path fill="#A3B2AD" d="M733.626,278.053c0.706,0.212,3.583,1.077,3.583,1.077c0.8,0.24,1.642-0.213,1.887-1.014l1.531-5.101
			c0.238-0.801-0.217-1.646-1.017-1.887c0,0-2.874-0.862-3.58-1.074c-0.707-0.213-0.645-1.868-0.645-1.868l-2.822-0.848
			c-0.801-0.242-1.643,0.215-1.885,1.015l-1.228,4.085l-1.227,4.085c-0.241,0.8,0.214,1.646,1.014,1.887l2.819,0.846
			C732.058,279.256,732.921,277.84,733.626,278.053z"/>
		<path fill="#A3B2AD" d="M736.874,261.267c0.731-0.073,3.72-0.377,3.72-0.377c0.831-0.084,1.437-0.827,1.354-1.658l-0.537-5.299
			c-0.084-0.832-0.826-1.437-1.659-1.355c0,0-2.985,0.305-3.72,0.376c-0.736,0.076-1.311-1.476-1.311-1.476l-2.93,0.295
			c-0.832,0.084-1.439,0.828-1.354,1.66l0.431,4.243l0.43,4.245c0.084,0.832,0.826,1.438,1.659,1.354l2.928-0.296
			C735.883,262.979,736.138,261.342,736.874,261.267z"/>
		<path fill="#A3B2AD" d="M733.447,244.518c0.65-0.35,3.293-1.772,3.293-1.772c0.735-0.396,1.012-1.314,0.615-2.052l-2.521-4.689
			c-0.397-0.735-1.317-1.012-2.052-0.616c0,0-2.645,1.422-3.296,1.771c-0.647,0.351-1.773-0.862-1.773-0.862l-2.596,1.393
			c-0.736,0.395-1.01,1.315-0.615,2.052l2.021,3.756l2.021,3.755c0.396,0.737,1.314,1.015,2.052,0.616l2.59-1.394
			C733.188,246.477,732.797,244.866,733.447,244.518z"/>
		<circle fill="#A3B2AD" cx="693.057" cy="261.503" r="4.354"/>
		
			<rect x="704.824" y="228.996" transform="matrix(-0.7746 -0.6324 0.6324 -0.7746 1100.5887 880.5648)" fill="#A3B2AD" width="4.745" height="30.358"/>
		
			<rect x="682.75" y="225.407" transform="matrix(-0.9349 0.3549 -0.3549 -0.9349 1411.0283 222.3321)" fill="#A3B2AD" width="4.743" height="30.355"/>
		
			<rect x="668.611" y="242.73" transform="matrix(-0.1601 0.9871 -0.9871 -0.1601 1032.9863 -363.1296)" fill="#A3B2AD" width="4.746" height="30.359"/>
		
			<rect x="676.541" y="263.638" transform="matrix(0.775 0.632 -0.632 0.775 328.9646 -366.3179)" fill="#A3B2AD" width="4.746" height="30.358"/>
		
			<rect x="698.612" y="267.226" transform="matrix(0.9348 -0.3551 0.3551 0.9348 -54.5974 267.3154)" fill="#A3B2AD" width="4.747" height="30.357"/>
		
			<rect x="712.768" y="249.907" transform="matrix(0.1604 -0.9871 0.9871 0.1604 338.806 928.4617)" fill="#A3B2AD" width="4.744" height="30.357"/>
	</g>
</g>
<g>
	<path fill="#DDF0ED" d="M280.889,317.493c2.671-6.639,11.188-6.197,17.505-7.521c-7.097-14.188,16.105-24.484,27.676-16.299
		c-0.778-10.501,31.125-24.397,44.31,7.861c18.639-3.486,21.408,11.584,19.203,15.797c3.315,0.307,19.897,9.222,9.094,22.204
		c-4.866,3.903-15.519,4.604-24.572,4.647c-35.154,0.236-62.041-0.608-70.902-1.676
		C304.116,342.554,275.704,339.499,280.889,317.493"/>
</g>
<g>
	<path fill="#B5E1DD" d="M224.055,348.903c1.133-2.926,4.747-2.73,7.427-3.313c-3.012-6.253,6.832-10.789,11.742-7.181
		c-0.332-4.628,13.204-10.75,18.801,3.468c7.908-1.535,9.084,5.106,8.148,6.963c1.407,0.135,8.443,4.066,3.86,9.786
		c-2.064,1.72-6.584,2.028-10.425,2.046c-14.916,0.101-26.323-0.273-30.083-0.745C233.912,359.95,221.857,358.601,224.055,348.903"
		/>
</g>
<g>
	<path fill="#E8EAE9" d="M182.25,366.478c0.634-1.738,2.658-1.621,4.158-1.967c-1.688-3.717,3.823-6.41,6.573-4.265
		c-0.186-2.751,7.392-6.386,10.528,2.063c4.428-0.911,5.087,3.036,4.564,4.139c0.788,0.081,4.729,2.417,2.163,5.815
		c-1.156,1.021-3.686,1.204-5.837,1.214c-8.352,0.057-14.739-0.167-16.844-0.448C187.771,373.043,181.021,372.24,182.25,366.478"/>
</g>
<g>
	<path fill="#EFEFE6" d="M73.941,200.421c4.039-11.839,17.71-11.326,27.789-13.87c-11.9-24.892,24.918-43.857,43.771-29.734
		c-1.635-18.566,49.003-44.18,71.327,12.51c29.754-6.764,34.748,19.829,31.368,27.357c5.327,0.437,32.238,15.692,15.396,39.021
		c-7.658,7.063-24.711,8.643-39.222,9.006c-56.351,1.534-99.487,0.894-113.732-0.714C112.103,244.051,66.439,239.543,73.941,200.421
		"/>
</g>
<text transform="matrix(1 0 0 1 105.5142 222.8994)" fill="#BCBCBC" font-family="'CourierNewPSMT'" font-size="48" letter-spacing="-4">&lt;!--</text>
<g>
	<line fill="#A09A8E" x1="896.606" y1="158.249" x2="896.606" y2="267.074"/>
	<line fill="#A09A8E" x1="918.939" y1="140.946" x2="918.939" y2="220.997"/>
	
		<text transform="matrix(0.6827 0.2478 -0.3413 0.94 881.6826 294.9854)" fill="#A09A8E" font-family="'CenturyGothic'" font-size="48">0</text>
	
		<text transform="matrix(0.8754 -0.4835 0.4835 0.8754 917.7891 252.4844)" fill="#A09A8E" font-family="'CenturyGothic'" font-size="48">1</text>
</g>
<g>
	<line fill="#A09A8E" x1="947.644" y1="143.448" x2="947.644" y2="252.273"/>
	<line fill="#A09A8E" x1="962.588" y1="167.319" x2="962.588" y2="274.289"/>
	
		<text transform="matrix(-0.6827 0.2478 0.3413 0.94 962.5674 280.1846)" fill="#A09A8E" font-family="'CenturyGothic'" font-size="48">0</text>
	
		<text transform="matrix(0.861 0.5086 -0.5086 0.861 938.7842 295.9893)" fill="#A09A8E" font-family="'CenturyGothic'" font-size="48">1</text>
</g>
<g>
	<path fill="#EDF2F1" d="M861.539,137.437c3.549-11.688,15.661-11.145,24.585-13.633c-10.608-24.625,21.962-43.269,38.703-29.267
		c-1.498-18.348,43.299-43.525,63.225,12.545c26.343-6.607,30.836,19.681,27.861,27.11c4.721,0.446,28.601,15.588,13.74,38.595
		c-6.766,6.958-21.871,8.475-34.724,8.797c-49.921,1.37-88.141,0.626-100.766-0.999
		C895.462,180.645,854.993,176.072,861.539,137.437"/>
</g>
<text transform="matrix(1 0 0 1 917.7891 151.9897)" fill="#C2C6C5" font-family="'CourierNewPSMT'" font-size="48" letter-spacing="-4">--&gt;</text>
<g>
	<g>
		<path fill="#CFAC76" d="M328.267,235.675c-9.503,29.932-41.469,46.493-71.403,36.991c-29.932-9.504-46.494-41.472-36.991-71.404
			c9.503-29.933,41.471-46.495,71.403-36.992C321.211,173.774,337.77,205.742,328.267,235.675z M259.63,263.953
			c25.123,7.977,51.951-5.921,59.927-31.044c7.975-25.122-5.923-51.954-31.045-59.928c-25.124-7.977-51.953,5.925-59.929,31.046
			C220.606,229.148,234.506,255.978,259.63,263.953z"/>
		<path fill="#CFAC76" d="M285.886,222.219c-2.072,6.525-9.042,10.137-15.567,8.063c-6.524-2.072-10.135-9.041-8.063-15.565
			c2.071-6.525,9.041-10.135,15.563-8.063C284.346,208.725,287.956,215.694,285.886,222.219z M271.69,225.964
			c4.143,1.314,8.563-0.976,9.876-5.117c1.313-4.14-0.975-8.563-5.116-9.877c-4.14-1.315-8.563,0.977-9.876,5.117
			C265.259,220.228,267.55,224.649,271.69,225.964z"/>
		<path fill="#CFAC76" d="M296.87,164.976c0.295-0.933,1.5-4.73,1.5-4.73c0.338-1.058-0.25-2.188-1.307-2.524l-6.736-2.138
			c-1.057-0.336-2.188,0.25-2.522,1.307c0,0-1.205,3.797-1.501,4.73c-0.297,0.932-2.49,0.817-2.49,0.817l-1.182,3.725
			c-0.336,1.057,0.248,2.186,1.306,2.522l5.396,1.713l5.395,1.712c1.059,0.335,2.188-0.249,2.521-1.307l1.182-3.723
			C298.43,167.081,296.573,165.908,296.87,164.976z"/>
		<path fill="#CFAC76" d="M274.664,160.324c-0.085-0.977-0.422-4.945-0.422-4.945c-0.096-1.106-1.07-1.925-2.175-1.831l-7.042,0.602
			c-1.106,0.095-1.925,1.067-1.831,2.173c0,0,0.338,3.968,0.422,4.944c0.084,0.976-1.988,1.709-1.988,1.709l0.333,3.893
			c0.093,1.105,1.065,1.925,2.172,1.831l5.64-0.482l5.642-0.482c1.104-0.094,1.922-1.068,1.83-2.172l-0.332-3.894
			C276.913,161.67,274.745,161.299,274.664,160.324z"/>
		<path fill="#CFAC76" d="M252.368,164.524c-0.452-0.869-2.284-4.406-2.284-4.406c-0.511-0.986-1.723-1.371-2.71-0.86l-6.275,3.25
			c-0.984,0.51-1.369,1.723-0.86,2.708c0,0,1.833,3.537,2.284,4.407c0.451,0.87-1.183,2.34-1.183,2.34l1.797,3.469
			c0.511,0.986,1.723,1.371,2.709,0.859l5.026-2.603l5.026-2.604c0.987-0.51,1.368-1.724,0.86-2.71l-1.797-3.469
			C254.96,164.905,252.814,165.392,252.368,164.524z"/>
		<path fill="#CFAC76" d="M233.374,176.935c-0.749-0.631-3.797-3.197-3.797-3.197c-0.846-0.715-2.113-0.606-2.83,0.241l-4.552,5.406
			c-0.718,0.847-0.608,2.117,0.242,2.832c0,0,3.047,2.565,3.794,3.196c0.75,0.631-0.197,2.615-0.197,2.615l2.989,2.518
			c0.848,0.714,2.113,0.606,2.831-0.243l3.646-4.329l3.647-4.328c0.716-0.85,0.604-2.118-0.243-2.833l-2.988-2.517
			C235.916,176.296,234.124,177.566,233.374,176.935z"/>
		<path fill="#CFAC76" d="M220.579,195.67c-0.934-0.296-4.731-1.501-4.731-1.501c-1.059-0.334-2.187,0.25-2.522,1.308l-2.14,6.736
			c-0.333,1.058,0.25,2.188,1.307,2.523c0,0,3.797,1.206,4.731,1.501c0.932,0.297,0.815,2.492,0.815,2.492l3.726,1.182
			c1.056,0.335,2.187-0.249,2.524-1.307l1.711-5.395l1.714-5.395c0.335-1.058-0.251-2.188-1.307-2.523l-3.726-1.182
			C222.682,194.107,221.509,195.967,220.579,195.67z"/>
		<path fill="#CFAC76" d="M215.925,217.876c-0.974,0.083-4.944,0.422-4.944,0.422c-1.106,0.094-1.924,1.067-1.832,2.173l0.602,7.042
			c0.095,1.105,1.068,1.924,2.175,1.831c0,0,3.969-0.341,4.945-0.422c0.975-0.082,1.707,1.986,1.707,1.986l3.894-0.333
			c1.106-0.092,1.927-1.067,1.832-2.172l-0.482-5.639l-0.482-5.641c-0.096-1.106-1.068-1.925-2.173-1.832l-3.895,0.334
			C217.27,215.627,216.901,217.793,215.925,217.876z"/>
		<path fill="#CFAC76" d="M220.126,240.171c-0.873,0.45-4.408,2.282-4.408,2.282c-0.984,0.512-1.37,1.725-0.86,2.709l3.251,6.277
			c0.511,0.985,1.723,1.368,2.709,0.859c0,0,3.538-1.833,4.406-2.283c0.869-0.451,2.34,1.186,2.34,1.186l3.467-1.799
			c0.989-0.512,1.375-1.724,0.862-2.711l-2.605-5.024l-2.602-5.025c-0.511-0.985-1.725-1.37-2.709-0.86l-3.47,1.797
			C220.507,237.58,220.995,239.724,220.126,240.171z"/>
		<path fill="#CFAC76" d="M232.535,259.164c-0.63,0.748-3.196,3.796-3.196,3.796c-0.716,0.848-0.606,2.113,0.242,2.828l5.406,4.557
			c0.848,0.717,2.117,0.604,2.831-0.244c0,0,2.565-3.045,3.199-3.793c0.629-0.75,2.611,0.197,2.611,0.197l2.519-2.988
			c0.713-0.848,0.604-2.115-0.243-2.833l-4.328-3.647l-4.329-3.646c-0.849-0.715-2.117-0.608-2.832,0.243l-2.518,2.986
			C231.898,256.621,233.166,258.414,232.535,259.164z"/>
		<path fill="#CFAC76" d="M251.272,271.96c-0.297,0.934-1.503,4.73-1.503,4.73c-0.334,1.057,0.251,2.186,1.309,2.523l6.735,2.139
			c1.058,0.334,2.189-0.25,2.524-1.309c0,0,1.205-3.797,1.501-4.73c0.295-0.932,2.492-0.814,2.492-0.814l1.182-3.727
			c0.336-1.057-0.251-2.188-1.307-2.523l-5.395-1.711l-5.395-1.715c-1.058-0.334-2.187,0.25-2.524,1.307l-1.182,3.727
			C249.709,269.857,251.569,271.029,251.272,271.96z"/>
		<path fill="#CFAC76" d="M273.478,276.613c0.084,0.977,0.422,4.945,0.422,4.945c0.095,1.104,1.068,1.924,2.175,1.832l7.043-0.604
			c1.105-0.098,1.924-1.066,1.832-2.178c0,0-0.342-3.967-0.427-4.939c-0.084-0.98,1.99-1.709,1.99-1.709l-0.335-3.896
			c-0.092-1.104-1.064-1.922-2.172-1.83l-5.641,0.484l-5.64,0.48c-1.106,0.096-1.925,1.068-1.831,2.174l0.332,3.893
			C271.228,275.267,273.393,275.638,273.478,276.613z"/>
		<path fill="#CFAC76" d="M295.773,272.414c0.452,0.871,2.284,4.408,2.284,4.408c0.511,0.982,1.723,1.369,2.71,0.859l6.274-3.254
			c0.984-0.508,1.371-1.725,0.86-2.707c0,0-1.831-3.537-2.284-4.406c-0.451-0.871,1.184-2.338,1.184-2.338l-1.797-3.47
			c-0.512-0.987-1.725-1.369-2.711-0.859l-5.024,2.605l-5.024,2.602c-0.985,0.512-1.369,1.725-0.861,2.711l1.798,3.467
			C293.182,272.031,295.325,271.544,295.773,272.414z"/>
		<path fill="#CFAC76" d="M314.767,260.003c0.75,0.629,3.794,3.196,3.794,3.196c0.85,0.717,2.117,0.605,2.832-0.242l4.553-5.404
			c0.717-0.85,0.606-2.118-0.24-2.833c0,0-3.047-2.565-3.795-3.196c-0.75-0.633,0.197-2.613,0.197-2.613l-2.988-2.518
			c-0.849-0.714-2.115-0.605-2.83,0.242l-3.647,4.328l-3.646,4.33c-0.717,0.848-0.606,2.117,0.239,2.83l2.989,2.52
			C312.225,260.642,314.017,259.369,314.767,260.003z"/>
		<path fill="#CFAC76" d="M327.561,241.267c0.936,0.298,4.73,1.501,4.73,1.501c1.059,0.335,2.188-0.25,2.524-1.307l2.138-6.737
			c0.336-1.056-0.25-2.187-1.307-2.522c0,0-3.796-1.205-4.73-1.5c-0.933-0.296-0.816-2.491-0.816-2.491l-3.725-1.182
			c-1.058-0.336-2.188,0.249-2.523,1.307l-1.712,5.394l-1.713,5.397c-0.335,1.056,0.25,2.187,1.307,2.521l3.724,1.184
			C325.458,242.828,326.631,240.971,327.561,241.267z"/>
		<path fill="#CFAC76" d="M332.216,219.06c0.975-0.083,4.944-0.422,4.944-0.422c1.104-0.094,1.924-1.067,1.832-2.173l-0.603-7.042
			c-0.097-1.105-1.07-1.925-2.175-1.832c0,0-3.969,0.341-4.944,0.425c-0.978,0.083-1.708-1.989-1.708-1.989l-3.895,0.333
			c-1.105,0.093-1.924,1.067-1.83,2.173l0.48,5.64l0.484,5.639c0.095,1.105,1.068,1.926,2.173,1.832l3.892-0.333
			C330.87,221.31,331.241,219.142,332.216,219.06z"/>
		<path fill="#CFAC76" d="M328.016,196.763c0.871-0.45,4.406-2.283,4.406-2.283c0.984-0.511,1.369-1.724,0.861-2.708l-3.252-6.275
			c-0.511-0.985-1.723-1.37-2.709-0.86c0,0-3.537,1.834-4.406,2.282c-0.871,0.452-2.338-1.182-2.338-1.182l-3.47,1.797
			c-0.987,0.51-1.372,1.724-0.86,2.709l2.604,5.025l2.604,5.026c0.511,0.985,1.723,1.371,2.709,0.86l3.468-1.798
			C327.632,199.357,327.147,197.214,328.016,196.763z"/>
		<path fill="#CFAC76" d="M315.605,177.772c0.63-0.749,3.195-3.795,3.195-3.795c0.715-0.849,0.606-2.116-0.242-2.833l-5.403-4.553
			c-0.85-0.714-2.119-0.606-2.834,0.242c0,0-2.564,3.046-3.199,3.796c-0.629,0.75-2.61-0.197-2.61-0.197l-2.519,2.987
			c-0.716,0.848-0.605,2.118,0.242,2.832l4.33,3.647l4.327,3.646c0.849,0.716,2.118,0.608,2.831-0.242l2.518-2.987
			C316.243,180.315,314.972,178.52,315.605,177.772z"/>
		<circle fill="#CFAC76" cx="274.072" cy="218.468" r="5.778"/>
		
			<rect x="279.902" y="170.037" transform="matrix(-0.9531 -0.3027 0.3027 -0.9531 495.2664 457.106)" fill="#CFAC76" width="6.295" height="40.285"/>
		
			<rect x="250.912" y="176.395" transform="matrix(-0.7385 0.6743 -0.6743 -0.7385 574.197 170.3569)" fill="#CFAC76" width="6.296" height="40.285"/>
		
			<rect x="241.934" y="204.68" transform="matrix(0.2146 0.9767 -0.9767 0.2146 412.0624 -62.8036)" fill="#CFAC76" width="6.299" height="40.287"/>
		
			<rect x="261.937" y="226.599" transform="matrix(0.9533 0.3021 -0.3021 0.9533 86.9254 -68.5528)" fill="#CFAC76" width="6.297" height="40.287"/>
		
			<rect x="290.921" y="220.238" transform="matrix(0.7382 -0.6745 0.6745 0.7382 -85.1701 261.2838)" fill="#CFAC76" width="6.301" height="40.286"/>
		
			<rect x="299.919" y="191.953" transform="matrix(-0.2145 -0.9767 0.9767 -0.2145 160.9111 553.6014)" fill="#CFAC76" width="6.297" height="40.286"/>
	</g>
</g>
<g>
	<path fill="#F2F4F4" d="M610.885,105.859c1.134-2.926,4.748-2.73,7.428-3.313c-3.013-6.253,6.831-10.789,11.741-7.181
		c-0.331-4.628,13.204-10.75,18.801,3.468c7.907-1.535,9.084,5.106,8.148,6.963c1.407,0.135,8.443,4.066,3.86,9.786
		c-2.064,1.72-6.584,2.028-10.426,2.046c-14.915,0.101-26.322-0.273-30.082-0.745C620.742,116.906,608.688,115.557,610.885,105.859"
		/>
</g>
<g>
	<path fill="#EDF7F4" d="M1012.809,237.615c1.27-3.473,5.312-3.239,8.309-3.93c-3.372-7.426,7.639-12.807,13.133-8.521
		c-0.372-5.497,14.769-12.759,21.037,4.123c8.846-1.82,10.163,6.065,9.117,8.27c1.574,0.161,9.447,4.829,4.322,11.62
		c-2.311,2.04-7.364,2.404-11.664,2.426c-16.688,0.114-29.447-0.335-33.655-0.895
		C1023.841,250.733,1010.354,249.128,1012.809,237.615"/>
</g>
<g>
	<path fill="#FFFFFF" d="M53.499,242.56c1.669-3.304,6.967-3.089,10.895-3.751c-4.405-7.055,10.035-12.191,17.228-8.125
		c-0.479-5.226,19.378-12.157,27.562,3.882c11.599-1.747,13.31,5.748,11.936,7.846c2.063,0.15,12.374,4.574,5.644,11.039
		c-3.032,1.944-9.655,2.3-15.292,2.328c-21.869,0.138-38.593-0.267-44.104-0.791C67.933,255.011,50.26,253.509,53.499,242.56"/>
</g>
</svg>
